<?xml version="1.0" encoding="UTF-8"?>
<svg width="205px" height="50px" viewBox="0 0 205 50" version="1.1" xmlns="http://www.w3.org/2000/svg" xmlns:xlink="http://www.w3.org/1999/xlink">
    <!-- Generator: Sketch 53.2 (72643) - https://sketchapp.com -->
    <title>FluAtHome_Logo</title>
    <desc>Created with Sketch.</desc>
    <g id="Page-1" stroke="none" stroke-width="1" fill="none" fill-rule="evenodd">
        <g id="XL-Desktop-v1.0" transform="translate(-150.000000, -30.000000)" fill="#FFFFFF">
            <g id="FluAtHome_Logo" transform="translate(150.000000, 30.000000)">
                <path d="M30.645,19.6384444 C30.535,19.8451111 30.2894444,20.4606667 30.235,20.694 C30.1794444,20.9273333 29.795,21.7351111 29.6172222,21.9962222 C29.4394444,22.2562222 28.7261111,23.0373333 28.5483333,23.3117778 C28.3705556,23.5851111 27.2605556,24.9417778 27.0961111,25.134 C26.9316667,25.3262222 26.6983333,25.6817778 26.5338889,25.7784444 C26.3694444,25.874 26.1361111,26.0795556 26.1361111,26.1206667 C26.1361111,26.1617778 26.0683333,27.1351111 26.0683333,27.1351111 L26.0683333,46.2995556 C28.8461111,45.9628889 31.4683333,45.1362222 33.855,43.9084444 L33.855,29.0362222 C33.855,29.0362222 33.8161111,28.4695556 33.8161111,28.4451111 C33.8161111,28.4206667 33.6783333,28.3017778 33.5838889,28.2451111 C33.4883333,28.1895556 33.3516667,27.9817778 33.2561111,27.8695556 C33.1605556,27.7584444 32.5127778,26.9662222 32.4083333,26.8062222 C32.305,26.6473333 31.8883333,26.1906667 31.785,26.0395556 C31.6816667,25.8873333 31.4572222,25.4162222 31.425,25.2806667 C31.3938889,25.144 31.2494444,24.7851111 31.185,24.664 C31.1227778,24.5451111 30.6427778,23.7695556 30.6427778,23.7695556 C30.6027778,23.6495556 30.3938889,23.2062222 30.3305556,23.134 C30.2661111,23.0628889 29.8905556,22.5551111 29.8594444,22.5073333 C29.8272222,22.4584444 29.8027778,22.3628889 29.795,22.2828889 C29.7872222,22.2028889 29.835,22.0506667 29.915,22.0028889 C29.995,21.9551111 30.275,21.8751111 30.5627778,21.924 C30.8505556,21.9717778 31.4094444,22.3873333 31.5772222,22.5551111 C31.745,22.7217778 32.3361111,23.6262222 32.3772222,23.7373333 C32.4172222,23.8495556 32.6094444,24.0328889 32.6638889,24.0417778 C32.7205556,24.0495556 32.785,24.0251111 32.8638889,23.9773333 C32.9438889,23.9295556 33.0483333,23.4817778 33.0561111,23.3217778 C33.0638889,23.1617778 33.0238889,22.5306667 32.9994444,22.4351111 C32.9761111,22.3395556 32.7994444,21.7795556 32.7683333,21.6917778 C32.7361111,21.604 32.6094444,21.0684444 32.6005556,20.9717778 C32.5927778,20.8762222 32.5194444,20.3562222 32.4961111,20.2451111 C32.4727778,20.1328889 32.0405556,18.894 32.0161111,18.7817778 C31.9972222,18.6906667 31.825,18.0762222 31.7438889,17.7128889 C31.6694444,17.8762222 31.6016667,18.0295556 31.5772222,18.104 C31.5772222,18.104 30.755,19.4328889 30.645,19.6384444" id="Fill-1"></path>
                <path d="M17.2487778,27.797 C17.1665556,27.9514444 16.981,28.4158889 16.9398889,28.5914444 C16.8987778,28.767 16.6098889,29.3747778 16.4754444,29.5714444 C16.3421111,29.767 15.8043333,30.3547778 15.671,30.5614444 C15.5365556,30.7681111 14.701,31.7892222 14.5776667,31.9336667 C14.4532222,32.0781111 14.2776667,32.3458889 14.1543333,32.4181111 C14.031,32.4903333 13.8554444,32.6447778 13.8554444,32.677 C13.8554444,32.707 13.8032222,33.4392222 13.8032222,33.4392222 L13.8032222,44.4725556 C15.4176667,45.1903333 17.1243333,45.7325556 18.9054444,46.0681111 L18.9554444,27.0392222 C18.9554444,27.0392222 19.0376667,26.217 18.8187778,25.6681111 C18.7921111,25.6003333 18.7532222,25.4958889 18.7054444,25.3614444 C18.5587778,25.5581111 18.3976667,25.7714444 18.3532222,25.8214444 C18.271,25.9147778 18.0021111,26.487 17.951,26.6414444 C17.951,26.6414444 17.331,27.6414444 17.2487778,27.797" id="Fill-3"></path>
                <path d="M23.2437778,-0.000222222222 C10.406,-0.000222222222 0.000444444444,10.4064444 0.000444444444,23.2442222 C0.000444444444,30.4508889 3.28044444,36.8897778 8.42933333,41.1542222 L8.45044444,33.3675556 C8.45044444,33.3675556 8.51155556,32.7486667 8.34711111,32.3364444 C8.18155556,31.9231111 7.43822222,29.6953333 7.23266667,28.7042222 C7.026,27.7142222 6.82044444,26.1464444 6.82044444,26.1464444 C6.82044444,26.1464444 6.13822222,24.9186667 6.036,24.7531111 C5.93266667,24.5886667 5.61266667,24.0731111 5.56155556,24.0008889 C5.50933333,23.9286667 4.88044444,23.072 4.71488889,22.7731111 C4.55044444,22.4742222 4.23044444,21.7931111 4.17933333,21.5964444 C4.12711111,21.4008889 4.09711111,20.9986667 4.35377778,20.8231111 C4.61155556,20.6475556 5.01488889,20.6475556 5.12711111,20.7508889 C5.24155556,20.8542222 5.48933333,21.0497778 5.64377778,21.3186667 C5.79822222,21.5864444 6.73822222,22.9686667 6.80933333,23.0931111 C6.88155556,23.2164444 7.40822222,23.9897778 7.60377778,24.2064444 C7.80044444,24.4231111 7.94377778,24.5886667 7.986,24.6297778 C8.02711111,24.6708889 8.23266667,24.7331111 8.28488889,24.692 C8.336,24.6508889 8.34711111,24.3308889 8.34711111,24.1864444 C8.34711111,24.042 8.26488889,23.3708889 8.21266667,23.2164444 C8.16155556,23.062 7.97488889,22.4431111 7.96488889,22.3608889 C7.95377778,22.2775556 7.78933333,21.3908889 7.76822222,21.2353333 C7.74822222,21.0808889 7.59377778,20.2864444 7.55266667,20.1008889 C7.51155556,19.9153333 7.20155556,18.8531111 7.15044444,18.6464444 C7.09822222,18.4408889 7.026,18.0897778 7.21155556,17.7908889 C7.39711111,17.4908889 7.73822222,17.4086667 7.87155556,17.4186667 C8.006,17.4297778 8.17155556,17.4597778 8.35711111,17.6764444 C8.54266667,17.8931111 8.77933333,18.5953333 8.84155556,18.8942222 C8.90377778,19.1931111 9.21266667,20.2042222 9.25377778,20.4831111 C9.29488889,20.762 9.43933333,21.2264444 9.48155556,21.3908889 C9.52266667,21.5553333 9.74933333,22.2464444 9.77044444,22.3497778 C9.79155556,22.4531111 10.0482222,23.2997778 10.0693333,23.3408889 C10.0893333,23.382 10.2037778,23.722 10.256,23.7631111 C10.306,23.8042222 10.3682222,23.8764444 10.4826667,23.8664444 C10.5948889,23.8564444 10.6571111,23.7431111 10.7093333,23.6297778 C10.7604444,23.5153333 10.8015556,22.7831111 10.8015556,22.6697778 C10.8015556,22.5564444 10.8426667,21.2464444 10.8537778,21.0708889 C10.8626667,20.8953333 10.9882222,19.0908889 10.9882222,18.9564444 C10.9882222,18.822 11.0704444,17.2131111 11.0704444,17.0997778 C11.0704444,16.9853333 11.0393333,16.6353333 11.276,16.3464444 C11.5126667,16.0575556 11.916,16.1397778 12.0504444,16.1708889 C12.1837778,16.202 12.4415556,16.4186667 12.5248889,16.7075556 C12.6071111,16.9964444 12.6271111,17.2853333 12.6271111,17.5731111 C12.6271111,17.8631111 12.7004444,18.842 12.7004444,19.0908889 L12.7004444,20.9575556 C12.7004444,21.2564444 12.7515556,21.8997778 12.7004444,22.2397778 C12.7004444,22.2397778 12.6382222,23.0308889 12.6482222,23.1542222 C12.6593333,23.2786667 12.7304444,23.6186667 12.8237778,23.6297778 C12.916,23.6397778 13.1537778,23.5775556 13.3393333,23.0931111 C13.5248889,22.6086667 14.1337778,20.7408889 14.1648889,20.6475556 C14.1948889,20.5553333 14.5771111,19.3375556 14.6393333,19.2031111 C14.7015556,19.0697778 15.0104444,18.1097778 15.1337778,17.9764444 C15.2582222,17.842 15.5471111,17.5631111 15.7015556,17.5631111 C15.8571111,17.5631111 16.2282222,17.5531111 16.3626667,17.7797778 C16.496,18.0075556 16.6193333,18.2342222 16.5782222,18.5642222 C16.5371111,18.8942222 16.2071111,20.0597778 16.1771111,20.2042222 C16.1448889,20.3486667 15.5882222,21.9475556 15.5571111,22.092 C15.5271111,22.2364444 15.4337778,22.9075556 15.4237778,23.0308889 C15.4126667,23.1542222 15.2482222,23.8453333 15.2071111,23.9586667 C15.1648889,24.0731111 14.9382222,24.7942222 14.9071111,24.9186667 C14.8771111,25.0431111 14.8248889,25.8575556 14.836,26.0642222 C14.8448889,26.2708889 14.9804444,26.8475556 15.0826667,26.9097778 C15.186,26.9708889 15.2682222,27.0031111 15.3415556,26.992 C15.4126667,26.982 15.6604444,26.7442222 15.7126667,26.5997778 C15.7637778,26.4564444 16.5271111,25.2897778 16.7437778,25.0731111 C16.9604444,24.8564444 17.6826667,24.3208889 18.0537778,24.2586667 C18.146,24.2431111 18.2371111,24.2375556 18.3237778,24.2397778 C17.9571111,23.1242222 17.5093333,21.6653333 17.3393333,20.8453333 C17.0637778,19.5286667 16.7904444,17.4464444 16.7904444,17.4464444 C16.7904444,17.4464444 15.886,15.8153333 15.7493333,15.5964444 C15.6126667,15.3764444 15.1871111,14.692 15.1193333,14.5953333 C15.0504444,14.4997778 14.2137778,13.362 13.9948889,12.9642222 C13.776,12.5675556 13.3515556,11.6631111 13.2815556,11.4031111 C13.2137778,11.142 13.1726667,10.6075556 13.5148889,10.3742222 C13.8582222,10.142 14.3915556,10.142 14.5426667,10.2786667 C14.6937778,10.4164444 15.0226667,10.6764444 15.2282222,11.0331111 C15.4337778,11.3886667 16.6815556,13.2253333 16.7771111,13.3897778 C16.8726667,13.5542222 17.5726667,14.582 17.8326667,14.8697778 C18.0926667,15.1575556 18.2837778,15.3764444 18.3393333,15.432 C18.3937778,15.4864444 18.6682222,15.5686667 18.736,15.5142222 C18.8048889,15.4586667 18.8193333,15.0342222 18.8193333,14.842 C18.8193333,14.6508889 18.7093333,13.7597778 18.6404444,13.5542222 C18.5726667,13.3486667 18.3248889,12.5264444 18.3126667,12.4164444 C18.2982222,12.3075556 18.0793333,11.1286667 18.0515556,10.9231111 C18.0237778,10.7175556 17.8182222,9.662 17.7626667,9.41533333 C17.7093333,9.16866667 17.2971111,7.75644444 17.2293333,7.48311111 C17.1604444,7.20866667 17.0637778,6.74311111 17.3115556,6.34533333 C17.5582222,5.94866667 18.0104444,5.83866667 18.1882222,5.85311111 C18.366,5.86644444 18.586,5.90644444 18.8326667,6.19533333 C19.0793333,6.48311111 19.3937778,7.41422222 19.476,7.812 C19.5593333,8.20977778 19.9704444,9.55311111 20.0248889,9.92311111 C20.0793333,10.2931111 20.2715556,10.9086667 20.326,11.1286667 C20.3815556,11.3475556 20.6815556,12.2664444 20.7104444,12.4031111 C20.7371111,12.5397778 21.0804444,13.6642222 21.1071111,13.7186667 C21.1348889,13.7731111 21.2848889,14.2253333 21.3537778,14.2808889 C21.4215556,14.3353333 21.5048889,14.4308889 21.6548889,14.4175556 C21.806,14.4042222 21.8882222,14.2531111 21.9571111,14.102 C22.0248889,13.952 22.0804444,12.9786667 22.0804444,12.8275556 C22.0804444,12.6775556 22.1348889,10.9364444 22.1493333,10.7042222 C22.1615556,10.4708889 22.3271111,8.07311111 22.3271111,7.89422222 C22.3271111,7.71644444 22.436,5.57866667 22.436,5.42755556 C22.436,5.27644444 22.3948889,4.81088889 22.7115556,4.42644444 C23.026,4.04311111 23.5604444,4.15311111 23.7382222,4.19422222 C23.916,4.23533333 24.2593333,4.52311111 24.3693333,4.90644444 C24.4782222,5.29088889 24.506,5.67422222 24.506,6.05755556 C24.506,6.442 24.6026667,7.74311111 24.6026667,8.07311111 L24.6026667,10.5531111 C24.6026667,10.9497778 24.6704444,11.8042222 24.6026667,12.2564444 C24.6026667,12.2564444 24.5193333,13.3075556 24.5326667,13.472 C24.5471111,13.6364444 24.6426667,14.0886667 24.766,14.102 C24.8893333,14.1164444 25.2048889,14.0342222 25.4515556,13.3897778 C25.6982222,12.7453333 26.5071111,10.2653333 26.5482222,10.142 C26.5893333,10.0186667 27.096,8.402 27.1782222,8.22311111 C27.2604444,8.04533333 27.6715556,6.77088889 27.836,6.59311111 C28.0004444,6.41422222 28.3837778,6.04422222 28.5904444,6.04422222 C28.7948889,6.04422222 29.2882222,6.03088889 29.4671111,6.332 C29.6448889,6.63311111 29.8093333,6.93533333 29.7537778,7.37311111 C29.7004444,7.812 29.2615556,9.36088889 29.2204444,9.55311111 C29.1793333,9.74422222 28.4393333,11.8686667 28.3982222,12.0597778 C28.3571111,12.252 28.2337778,13.1431111 28.2204444,13.3075556 C28.206,13.472 27.9871111,14.3897778 27.9326667,14.5408889 C27.8771111,14.692 27.5748889,15.6508889 27.5337778,15.8153333 C27.4937778,15.9797778 27.4248889,17.062 27.4382222,17.3364444 C27.4526667,17.6108889 27.6304444,18.3775556 27.7671111,18.4597778 C27.9037778,18.542 28.0148889,18.5842222 28.1104444,18.5697778 C28.206,18.5564444 28.5348889,18.2408889 28.6026667,18.0486667 C28.6726667,17.8575556 29.686,16.3086667 29.9748889,16.0208889 C30.2615556,15.7331111 31.2215556,15.0208889 31.7148889,14.9375556 C32.2071111,14.8564444 32.6871111,14.9931111 32.8237778,15.0753333 C32.9615556,15.1575556 33.0426667,15.4175556 33.0304444,15.5553333 C33.016,15.692 32.9748889,15.8564444 32.9204444,15.9386667 C32.8826667,15.9953333 32.5593333,16.4342222 32.3293333,16.7364444 C32.3471111,16.7364444 32.3704444,16.7364444 32.3848889,16.7364444 C32.5048889,16.7364444 32.7282222,16.952 32.8237778,17.0564444 C32.9204444,17.1597778 33.1604444,17.9031111 33.2082222,18.0075556 C33.256,18.1108889 33.5515556,19.0542222 33.576,19.1264444 C33.5993333,19.1975556 34.0715556,20.6442222 34.2148889,21.0197778 C34.3593333,21.3953333 34.5426667,21.4442222 34.6137778,21.4353333 C34.6871111,21.4275556 34.7426667,21.1642222 34.7504444,21.0675556 C34.7582222,20.972 34.7104444,20.3597778 34.7104444,20.3597778 C34.6704444,20.0953333 34.7104444,19.5975556 34.7104444,19.3664444 L34.7104444,17.9186667 C34.7104444,17.7275556 34.766,16.9675556 34.766,16.7442222 C34.766,16.5208889 34.7826667,16.2964444 34.846,16.0731111 C34.9104444,15.8497778 35.1104444,15.6808889 35.2137778,15.6575556 C35.3171111,15.6331111 35.6293333,15.5697778 35.8137778,15.7931111 C35.9982222,16.0175556 35.9726667,16.2886667 35.9726667,16.3764444 C35.9726667,16.4642222 36.0382222,17.7108889 36.0382222,17.8153333 C36.0382222,17.9186667 36.1337778,19.3175556 36.1404444,19.4542222 C36.1482222,19.5897778 36.1815556,20.6042222 36.1815556,20.6931111 C36.1815556,20.7808889 36.2137778,21.3475556 36.2526667,21.4353333 C36.2926667,21.5242222 36.3404444,21.612 36.4282222,21.6197778 C36.516,21.6275556 36.5648889,21.572 36.6037778,21.5397778 C36.6448889,21.5075556 36.7326667,21.2442222 36.7482222,21.212 C36.7648889,21.1797778 36.9648889,20.5253333 36.9804444,20.4442222 C36.996,20.3653333 37.1715556,19.8297778 37.2037778,19.7008889 C37.236,19.5731111 37.3482222,19.2142222 37.3804444,18.9986667 C37.4115556,18.782 37.6515556,17.9986667 37.7004444,17.7675556 C37.7482222,17.5353333 37.9315556,16.992 38.076,16.8242222 C38.2193333,16.6564444 38.3471111,16.632 38.4515556,16.6242222 C38.5548889,16.6164444 38.8193333,16.6808889 38.9615556,16.912 C39.106,17.1442222 39.0504444,17.4153333 39.0104444,17.5753333 C38.9704444,17.7353333 38.7304444,18.5586667 38.6982222,18.702 C38.6671111,18.8464444 38.546,19.462 38.5315556,19.582 C38.5148889,19.7008889 38.3871111,20.3886667 38.3793333,20.4531111 C38.3704444,20.5164444 38.2271111,20.9953333 38.1871111,21.1164444 C38.1471111,21.2353333 38.0826667,21.7553333 38.0826667,21.8675556 C38.0826667,21.9786667 38.0904444,22.2264444 38.1304444,22.2586667 C38.1715556,22.2908889 38.3315556,22.2431111 38.3626667,22.2108889 C38.3948889,22.1786667 38.5071111,22.0508889 38.6593333,21.8831111 C38.8104444,21.7153333 39.2182222,21.1164444 39.2748889,21.0197778 C39.3304444,20.9242222 40.0571111,19.8531111 40.1771111,19.6453333 C40.2982222,19.4375556 40.4893333,19.2853333 40.5771111,19.2064444 C40.6648889,19.1264444 40.9771111,19.1264444 41.1771111,19.262 C41.376,19.3975556 41.3526667,19.7097778 41.3126667,19.8608889 C41.2726667,20.0131111 41.0248889,20.5408889 40.8971111,20.772 C40.7682222,21.0042222 40.2815556,21.6675556 40.2415556,21.7231111 C40.2015556,21.7797778 39.9537778,22.1786667 39.8737778,22.3064444 C39.7937778,22.4342222 39.266,23.3864444 39.266,23.3864444 C39.266,23.3864444 39.106,24.6008889 38.9471111,25.3686667 C38.786,26.1353333 38.2115556,27.862 38.0826667,28.1808889 C37.9548889,28.5008889 38.0037778,28.9808889 38.0037778,28.9808889 L38.036,41.1753333 C43.1982222,36.912 46.4882222,30.4631111 46.4882222,23.2442222 C46.4882222,10.4064444 36.0815556,-0.000222222222 23.2437778,-0.000222222222" id="Fill-5"></path>
                <path d="M61.3795556,16.6587778 L61.3795556,17.6598889 L64.814,17.6598889 L64.814,21.0365556 L61.3795556,21.0365556 L61.3795556,32.3987778 L56.314,32.3987778 L56.314,21.0365556 L54.2251111,21.0365556 L54.2251111,17.6598889 L56.314,17.6598889 L56.314,16.2287778 C56.314,12.8232222 58.8895556,10.9065556 62.2673333,10.9354444 C63.8117778,10.9354444 65.5006667,11.3354444 66.674,12.0221111 L64.8995556,15.6276667 C64.3562222,15.2276667 63.6695556,14.9987778 63.1251111,14.9987778 C62.124,14.9987778 61.3795556,15.5421111 61.3795556,16.6587778" id="Fill-8"></path>
                <polygon id="Fill-10" points="67.9455556 32.3992222 73.04 32.3992222 73.04 11.1647778 67.9455556 11.1647778"></polygon>
                <path d="M91.3253333,16.916 L91.3253333,32.3993333 L86.2308889,32.3993333 L86.2308889,29.8804444 C85.172,31.6837778 83.4831111,32.5993333 81.2797778,32.6282222 C77.9308889,32.6282222 75.7564444,30.3093333 75.7564444,26.7037778 L75.7564444,16.916 L80.8497778,16.916 L80.8497778,25.2437778 C80.8497778,26.9893333 81.8231111,28.0493333 83.3397778,28.0493333 C85.1431111,28.0204444 86.2308889,26.5893333 86.2308889,24.5571111 L86.2308889,16.916 L91.3253333,16.916 Z" id="Fill-12"></path>
                <path d="M105.455111,22.9131111 C105.455111,24.802 106.514,26.462 108.202889,26.462 C109.976222,26.462 111.035111,24.8586667 111.035111,22.9408889 C111.035111,21.082 109.948444,19.5931111 108.145111,19.5931111 C106.542889,19.5931111 105.455111,21.1097778 105.455111,22.9131111 M115.844,27.6353333 C117.016222,27.6353333 118.190667,25.7464444 118.190667,23.0275556 C118.190667,17.5897778 114.698444,13.3542222 108.774,13.3542222 C103.395111,13.3542222 99.044,17.7331111 99.044,23.1131111 C99.044,28.4364444 103.108444,32.3853333 108.431778,32.3853333 C110.061778,32.3853333 112.208444,31.842 113.811778,30.6397778 L115.127333,32.9297778 C113.468444,34.2175556 110.635111,35.0475556 108.431778,35.0475556 C101.477333,35.0475556 96.2117778,29.9531111 96.2117778,23.1131111 C96.2117778,16.1586667 101.762889,10.7497778 108.774,10.7497778 C115.757333,10.7497778 120.994,15.9008889 120.994,22.9408889 C120.994,27.2053333 118.676222,29.9531111 115.499556,29.9531111 C113.782889,29.9531111 112.522889,29.2953333 112.151778,27.7497778 L112.095111,27.4064444 C110.978444,28.9797778 109.432889,29.6675556 107.830667,29.6675556 C104.625111,29.6675556 101.590667,27.0342222 101.590667,23.0564444 C101.590667,19.3931111 103.880667,16.3308889 107.429556,16.3308889 C109.690667,16.3308889 111.149556,17.8475556 111.265111,18.1053333 L111.265111,16.6453333 L114.784,16.6453333 L114.784,26.2331111 C114.784,27.2631111 115.214,27.6353333 115.844,27.6353333" id="Fill-13"></path>
                <path d="M141.305778,22.6396667 L141.305778,32.3985556 L136.211333,32.3985556 L136.211333,24.0985556 C136.211333,22.3541111 135.210222,21.2663333 133.579111,21.2663333 C131.690222,21.2952222 130.544667,22.7252222 130.544667,24.7574444 L130.544667,32.3985556 L125.450222,32.3985556 L125.450222,11.1641111 L130.544667,11.1641111 L130.544667,19.4341111 C131.632444,17.6607778 133.408,16.7152222 135.668,16.7152222 C139.073556,16.7152222 141.305778,19.0052222 141.305778,22.6396667" id="Fill-14"></path>
                <path d="M147.739222,24.7002222 C147.739222,27.018 149.084778,28.5646667 151.059222,28.5646667 C153.062556,28.5646667 154.407,27.018 154.407,24.7002222 C154.407,22.4102222 153.062556,20.8657778 151.059222,20.8657778 C149.084778,20.8657778 147.739222,22.4102222 147.739222,24.7002222 M159.530333,24.6435556 C159.530333,29.4224444 156.152556,32.5702222 151.059222,32.5702222 C145.964778,32.5702222 142.617,29.4224444 142.617,24.6435556 C142.617,19.8924444 145.964778,16.7446667 151.059222,16.7446667 C156.152556,16.7446667 159.530333,19.8924444 159.530333,24.6435556" id="Fill-15"></path>
                <path d="M187.485333,22.6396667 L187.485333,32.3985556 L182.390889,32.3985556 L182.390889,24.0985556 C182.390889,22.3252222 181.418667,21.2663333 179.844222,21.2663333 C178.040889,21.2952222 176.925333,22.7252222 176.925333,24.7574444 L176.925333,32.3985556 L171.830889,32.3985556 L171.830889,24.0985556 C171.830889,22.3252222 170.857556,21.2663333 169.283111,21.2663333 C167.480889,21.2952222 166.336444,22.7252222 166.336444,24.7574444 L166.336444,32.3985556 L161.270889,32.3985556 L161.270889,16.9163333 L166.336444,16.9163333 L166.336444,19.463 C167.395333,17.6607778 169.140889,16.7152222 171.373111,16.7152222 C173.892,16.7152222 175.750889,18.0041111 176.524222,20.1785556 C177.525333,17.8896667 179.414222,16.7152222 181.933111,16.7152222 C185.282,16.7152222 187.485333,19.0052222 187.485333,22.6396667" id="Fill-16"></path>
                <path d="M199.783444,23.2983333 C199.783444,21.5238889 198.639,20.3216667 196.921222,20.3216667 C195.261222,20.3216667 194.173444,21.5238889 193.831222,23.2983333 L199.783444,23.2983333 Z M204.705667,26.0172222 L193.944556,26.0172222 C194.431222,27.7627778 195.719,28.7361111 197.464556,28.7361111 C198.782333,28.7361111 200.069,28.1916667 201.100111,27.1616667 L203.761222,29.8227778 C202.186778,31.5972222 199.869,32.5705556 197.006778,32.5705556 C191.941222,32.5705556 188.822333,29.4516667 188.822333,24.7294444 C188.822333,19.9205556 192.055667,16.745 196.892333,16.745 C202.302333,16.745 205.049,20.3794444 204.705667,26.0172222 L204.705667,26.0172222 Z" id="Fill-17"></path>
                <path d="M59.905,42.2924444 C61.705,42.2924444 62.7261111,41.4846667 62.7261111,39.9257778 C62.7261111,38.4091111 61.705,37.6157778 59.905,37.6157778 L57.2694444,37.6157778 L57.2694444,42.2924444 L59.905,42.2924444 Z M62.6261111,46.488 L60.5427778,43.3124444 C60.345,43.3268889 60.1316667,43.3413333 59.905,43.3413333 L57.2694444,43.3413333 L57.2694444,46.488 L56.135,46.488 L56.135,36.5668889 L59.905,36.5668889 C62.385,36.5668889 63.8172222,37.7846667 63.8172222,39.8968889 C63.8172222,41.5268889 63.0094444,42.6468889 61.5783333,43.1002222 L63.9161111,46.488 L62.6261111,46.488 Z" id="Fill-18"></path>
                <path d="M71.6671111,42.2924444 C71.5971111,40.8468889 70.6315556,39.9113333 69.1726667,39.9113333 C67.7415556,39.9113333 66.7204444,40.8468889 66.5637778,42.2924444 L71.6671111,42.2924444 Z M72.6593333,43.1713333 L66.5637778,43.1713333 C66.7482222,44.6457778 67.8115556,45.6091111 69.2715556,45.6091111 C70.1926667,45.6091111 71.0004444,45.2691111 71.5826667,44.6591111 L72.1915556,45.2968889 C71.4826667,46.0768889 70.4337778,46.5302222 69.1871111,46.5302222 C66.9893333,46.5302222 65.4737778,44.9857778 65.4737778,42.7602222 C65.4737778,40.5346667 67.0037778,39.0046667 69.1726667,38.9902222 C71.5826667,38.9902222 72.7726667,40.6491111 72.6593333,43.1713333 L72.6593333,43.1713333 Z" id="Fill-19"></path>
                <path d="M76.4696667,39.9113333 C75.6341111,39.9113333 74.9963333,40.2091111 74.9963333,40.918 C74.9963333,42.6046667 79.163,41.7402222 79.163,44.4191111 C79.163,45.8791111 77.8596667,46.5302222 76.4274444,46.5302222 C75.3641111,46.5302222 74.273,46.1613333 73.5652222,45.4813333 L73.9896667,44.6735556 C74.6274444,45.2691111 75.5918889,45.6235556 76.4696667,45.6235556 C77.3485556,45.6235556 78.0574444,45.2824444 78.0707778,44.5324444 C78.1141111,42.718 73.933,43.6391111 73.9463333,41.0024444 C73.9463333,39.5857778 75.1807778,38.9757778 76.5407778,38.9757778 C77.4341111,38.9757778 78.2985556,39.2446667 78.9218889,39.6568889 L78.4963333,40.5068889 C77.9163333,40.138 77.1641111,39.9113333 76.4696667,39.9113333" id="Fill-20"></path>
                <path d="M86.4186667,42.2924444 C86.3486667,40.8468889 85.3831111,39.9113333 83.9242222,39.9113333 C82.4931111,39.9113333 81.472,40.8468889 81.3153333,42.2924444 L86.4186667,42.2924444 Z M87.4108889,43.1713333 L81.3153333,43.1713333 C81.4997778,44.6457778 82.5631111,45.6091111 84.0231111,45.6091111 C84.9442222,45.6091111 85.752,45.2691111 86.3342222,44.6591111 L86.9431111,45.2968889 C86.2342222,46.0768889 85.1864444,46.5302222 83.9386667,46.5302222 C81.7408889,46.5302222 80.2253333,44.9857778 80.2253333,42.7602222 C80.2253333,40.5346667 81.7553333,39.0046667 83.9242222,38.9902222 C86.3342222,38.9902222 87.5242222,40.6491111 87.4108889,43.1713333 L87.4108889,43.1713333 Z" id="Fill-21"></path>
                <path d="M93.9284444,43.9222222 L93.9284444,43.0155556 L91.604,43.0155556 C90.3573333,43.0155556 89.7051111,43.3977778 89.7051111,44.2344444 C89.7051111,45.0566667 90.3717778,45.6088889 91.4195556,45.6088889 C92.6817778,45.6088889 93.6451111,44.9855556 93.9284444,43.9222222 L93.9284444,43.9222222 Z M93.9428889,46.4877778 L93.9428889,45.3255556 C93.3484444,46.1333333 92.3984444,46.53 91.2073333,46.53 C89.6628889,46.53 88.6706667,45.5522222 88.6706667,44.2766667 C88.6706667,42.9733333 89.7051111,42.1511111 91.4617778,42.1366667 L93.914,42.1366667 L93.914,41.6688889 C93.914,40.5777778 93.234,39.9111111 91.9151111,39.9111111 C91.094,39.9111111 90.3284444,40.2233333 89.5495556,40.7755556 L89.0817778,39.9966667 C90.0451111,39.3588889 90.8528889,38.99 92.1284444,38.99 C93.9706667,38.99 94.9917778,39.9677778 95.0062222,41.5555556 L95.0195556,46.4877778 L93.9428889,46.4877778 Z" id="Fill-22"></path>
                <path d="M101.268889,38.9901111 L101.268889,40.0667778 C99.6955556,40.039 98.7166667,41.0167778 98.59,42.519 L98.59,46.4878889 L97.4844444,46.4878889 L97.4844444,39.0323333 L98.59,39.0323333 L98.59,40.6912222 C99.0855556,39.599 100.006667,39.0045556 101.268889,38.9901111" id="Fill-23"></path>
                <path d="M105.745889,39.9823333 C104.200333,39.9823333 103.094778,41.1167778 103.094778,42.7601111 C103.094778,44.419 104.200333,45.5523333 105.745889,45.5523333 C106.723667,45.5523333 107.531444,45.2123333 108.055889,44.589 L108.693667,45.2401111 C108.028111,46.0478889 106.993667,46.5301111 105.703667,46.5301111 C103.534778,46.5301111 102.004778,44.9856667 102.004778,42.7601111 C102.004778,40.549 103.548111,38.9901111 105.703667,38.9901111 C106.908111,38.9901111 107.900333,39.4012222 108.581444,40.0956667 L107.971444,40.8612222 C107.403667,40.3078889 106.652556,39.9823333 105.745889,39.9823333" id="Fill-24"></path>
                <path d="M117.620889,41.8953333 L117.620889,46.4875556 L116.516444,46.4875556 L116.516444,42.1786667 C116.516444,40.8464444 115.722,40.0531111 114.403111,40.0531111 C112.816444,40.0664444 111.880889,41.2008889 111.880889,42.8308889 L111.880889,46.4875556 L110.775333,46.4875556 L110.775333,35.9708889 L111.880889,35.9708889 L111.880889,40.7053333 C112.390889,39.5431111 113.412,39.0042222 114.786444,38.9897778 C116.573111,38.9897778 117.620889,40.0808889 117.620889,41.8953333" id="Fill-25"></path>
                <path d="M127.369222,37.6294444 C126.094778,37.6294444 125.258111,38.1394444 125.258111,38.9905556 C125.258111,41.5694444 130.842556,40.2227778 130.828111,43.8238889 C130.828111,45.4672222 129.368111,46.5305556 127.242556,46.5305556 C125.795889,46.5305556 124.379222,45.9072222 123.443667,45.0138889 L123.953667,44.0361111 C124.874778,44.915 126.137,45.425 127.255889,45.425 C128.688111,45.425 129.580333,44.8438889 129.580333,43.8794444 C129.594778,41.2294444 124.010333,42.6327778 124.010333,39.075 C124.010333,37.5161111 125.385889,36.5238889 127.440333,36.5238889 C128.589222,36.5238889 129.764778,36.8916667 130.587,37.445 L130.104778,38.4516667 C129.211444,37.8705556 128.163667,37.6294444 127.369222,37.6294444" id="Fill-26"></path>
                <path d="M136.849444,45.9773333 C136.325,46.3317778 135.758333,46.5306667 135.161667,46.5306667 C134.071667,46.5451111 133.262778,45.8928889 133.262778,44.4184444 L133.262778,40.124 L132.186111,40.124 L132.186111,39.2595556 L133.262778,39.2595556 L133.262778,37.3028889 L134.355,37.3028889 L134.355,39.2595556 L136.721667,39.2595556 L136.721667,40.124 L134.355,40.124 L134.355,44.234 C134.355,45.1417778 134.708333,45.5095556 135.346111,45.5095556 C135.729444,45.4951111 136.127222,45.3684444 136.538333,45.1273333 L136.849444,45.9773333 Z" id="Fill-27"></path>
                <path d="M144.997222,39.0324444 L144.997222,46.488 L143.892778,46.488 L143.892778,44.8013333 C143.396111,45.9635556 142.403889,46.5157778 141.057222,46.5302222 C139.313889,46.5302222 138.265,45.4246667 138.265,43.6246667 L138.265,39.0324444 L139.371667,39.0324444 L139.371667,43.3413333 C139.371667,44.6735556 140.150556,45.468 141.440556,45.468 C142.985,45.4391111 143.892778,44.3057778 143.892778,42.6902222 L143.892778,39.0324444 L144.997222,39.0324444 Z" id="Fill-28"></path>
                <path d="M153.442333,42.7742222 C153.442333,41.1308889 152.322333,39.9397778 150.749,39.9397778 C149.161222,39.9397778 148.042333,41.1308889 148.042333,42.7742222 C148.042333,44.4186667 149.161222,45.5953333 150.749,45.5953333 C152.322333,45.5953333 153.442333,44.4186667 153.442333,42.7742222 L153.442333,42.7742222 Z M154.547889,35.9708889 L154.547889,46.4875556 L153.442333,46.4875556 L153.442333,44.8864444 C152.890111,45.9353333 151.869,46.5453333 150.537889,46.5453333 C148.411222,46.5453333 146.937889,44.972 146.937889,42.7464444 C146.937889,40.5208889 148.411222,38.9764444 150.522333,38.9764444 C151.854556,38.9764444 152.890111,39.5853333 153.442333,40.6486667 L153.442333,35.9708889 L154.547889,35.9708889 Z" id="Fill-29"></path>
                <path d="M157.451667,49.2803333 C156.827222,49.2803333 156.331667,49.1103333 155.878333,48.7414444 L156.346111,47.8625556 C156.686111,48.1036667 157.026111,48.217 157.393889,48.217 C157.976111,48.217 158.457222,47.8481111 158.755,47.1403333 L159.067222,46.4314444 L155.977222,39.0325556 L157.139444,39.0325556 L159.619444,45.2403333 L161.987222,39.0325556 L163.121667,39.0325556 L159.690556,47.5503333 C159.222778,48.6847778 158.443889,49.2803333 157.451667,49.2803333" id="Fill-30"></path>
            </g>
        </g>
    </g>
</svg>