<?xml version="1.0" encoding="UTF-8"?>
<svg width="110px" height="73px" viewBox="0 0 110 73" version="1.1" xmlns="http://www.w3.org/2000/svg" xmlns:xlink="http://www.w3.org/1999/xlink">
    <!-- Generator: Sketch 53.2 (72643) - https://sketchapp.com -->
    <title>icon_HowItWorks_Step2</title>
    <desc>Created with Sketch.</desc>
    <g id="Page-1" stroke="none" stroke-width="1" fill="none" fill-rule="evenodd">
        <g id="XL-Desktop-C-Blue-Copy" transform="translate(-518.000000, -700.000000)" stroke="#2E97BB" stroke-width="2">
            <g id="icon_HowItWorks_Step2" transform="translate(522.500000, 701.651896)">
                <path d="M50.3333333,38.7179487 L50.3333333,69.6923077" id="Line-5" stroke-linecap="square"></path>
                <polygon id="Path-5" fill="#2E97BB" points="11.6153846 19.3589744 50.3333333 38.7179487 89.0512821 19.3589744 50.3333333 0"></polygon>
                <polyline id="Path-6" points="11.6153846 36.8228866 11.6153846 46.4615385 50.3333333 69.6923077 89.0512821 46.4615385 89.0512821 36.8228866"></polyline>
                <polyline id="Path-7" points="11.6153846 19.3589744 0 30.974359 38.7179487 50.3333333 50.3333333 38.7179487"></polyline>
                <polyline id="Path-8" points="50.3333333 38.7179487 61.9487179 50.3333333 100.666667 30.974359 89.0512821 19.3589744"></polyline>
                <polyline id="Path-9" points="11.6153846 19.3589744 0 19.3589744 38.7179487 -3.55271368e-15 50.3333333 -3.55271368e-15"></polyline>
                <polyline id="Path-9" transform="translate(75.500000, 9.679487) scale(-1, 1) translate(-75.500000, -9.679487) " points="61.9487179 19.3589744 50.3333333 19.3589744 89.0512821 -5.32907052e-15 100.666667 -5.32907052e-15"></polyline>
            </g>
        </g>
    </g>
</svg>