<?xml version="1.0" encoding="UTF-8"?>
<svg width="119px" height="91px" viewBox="0 0 119 91" version="1.1" xmlns="http://www.w3.org/2000/svg" xmlns:xlink="http://www.w3.org/1999/xlink">
    <!-- Generator: Sketch 53.2 (72643) - https://sketchapp.com -->
    <title>icon_HowItWorks_Step3</title>
    <desc>Created with Sketch.</desc>
    <g id="Page-1" stroke="none" stroke-width="1" fill="none" fill-rule="evenodd">
        <g id="XL-Desktop-C-Blue-Copy" transform="translate(-814.000000, -686.000000)">
            <g id="icon_HowItWorks_Step3" transform="translate(814.500000, 686.500000)">
                <g id="Group-26" transform="translate(39.000000, 10.000000)" stroke="#1BAB4C" stroke-width="2">
                    <polyline id="Path-6" fill="#FFFFFF" points="0.615384615 19.3589744 0.615384615 46.4615385 39.3333333 69.6923077 78.0512821 46.4615385 78.0512821 19.3589744"></polyline>
                    <polygon id="Path-6" fill="#FFFFFF" points="50.3530024 38.7179487 50.3530024 56.3655648 67.031613 46.3583984 67.031613 29.7546825"></polygon>
                    <path d="M54.4048431,43.0601237 L62.9797723,37.9151661" id="Path-6"></path>
                    <path d="M54.4048431,48.0601237 L62.9797723,42.9151661" id="Path-6"></path>
                    <path d="M39.3333333,38.7179487 L39.3333333,68.6923077" id="Line-5" stroke-linecap="square"></path>
                    <polygon id="Path-7" fill="#FFFFFF" stroke-linecap="round" stroke-linejoin="round" points="0.615384615 19.3589744 39.5 19.3589744 39.3333333 38.7179487"></polygon>
                    <polygon id="Path-8" fill="#FFFFFF" stroke-linecap="round" stroke-linejoin="round" points="39.3333333 38.7179487 39.5 19.3589744 78.0512821 19.3589744"></polygon>
                    <polygon id="Path-9" fill="#FFFFFF" stroke-linecap="round" stroke-linejoin="round" points="0.615384615 19.3589744 39.5 19.3589744 39.3333333 0"></polygon>
                    <polygon id="Path-9" fill="#FFFFFF" stroke-linecap="round" stroke-linejoin="round" transform="translate(58.692308, 9.679487) scale(-1, 1) translate(-58.692308, -9.679487) " points="39.3333333 19.3589744 77.8846154 19.3589744 78.0512821 0"></polygon>
                </g>
                <g id="Group-28">
                    <rect id="Rectangle" fill="#1BAB4C" x="0" y="0" width="50" height="90" rx="5"></rect>
                    <rect id="Rectangle" fill="#FFFFFF" x="4.5" y="4.5" width="41" height="65.5"></rect>
                    <g id="Group-24" transform="translate(13.500000, 27.750000)" stroke="#1BAB4C" stroke-linecap="round" stroke-linejoin="round" stroke-width="5">
                        <polyline id="Path-3" points="0 10.6518962 7.5 18.1518962 25 0.651896231"></polyline>
                    </g>
                    <circle id="Oval" fill="#FFFFFF" cx="25" cy="79.3566895" r="4.85668945"></circle>
                </g>
            </g>
        </g>
    </g>
</svg>