<?xml version="1.0" encoding="UTF-8"?>
<svg width="31px" height="35px" viewBox="0 0 31 35" version="1.1" xmlns="http://www.w3.org/2000/svg" xmlns:xlink="http://www.w3.org/1999/xlink">
    <!-- Generator: Sketch 53.2 (72643) - https://sketchapp.com -->
    <title>Group 32</title>
    <desc>Created with Sketch.</desc>
    <g id="Page-1" stroke="none" stroke-width="1" fill="none" fill-rule="evenodd">
        <g id="XL-Desktop-C-Blue-Copy" transform="translate(-774.000000, -281.000000)" fill="#FFFFFF" fill-rule="nonzero">
            <g id="Group-33" transform="translate(735.000000, 270.000000)">
                <g id="Group-32" transform="translate(39.663043, 11.000000)">
                    <path d="M29.4594045,25.1495086 C28.8518917,26.6042825 28.1060609,27.997346 27.2321848,29.3095119 C25.7745803,31.5104948 23.7339339,34.2653673 21.2210237,34.2653673 C18.9763127,34.2857738 18.3991013,32.8077628 15.3527079,32.8077628 C12.3063144,32.8077628 11.6707988,34.2653673 9.42608783,34.2653673 C6.89860158,34.2595369 4.95707234,31.7816092 3.52278948,29.5806264 C-0.523520694,23.4237048 -0.946226008,16.1969015 1.54919295,12.354656 C3.32164006,9.62602032 6.12315597,8.02848576 8.74684412,8.02848576 C11.4259213,8.02848576 13.1196577,9.48609029 15.3206406,9.48609029 C17.4691496,9.48609029 18.7780785,8.02848576 21.8740305,8.02848576 C24.2061978,8.02848576 26.6899559,9.30243212 28.4594878,11.5063302 C22.6698826,14.6751624 23.6144103,22.9397801 29.4594045,25.1495086 Z" id="Path"></path>
                    <path d="M19.5331177,5.5651341 C20.6583884,4.12210561 21.5125446,2.08437448 21.2035324,-1.0658141e-14 C19.3552899,0.137014826 17.2009504,1.30309845 15.9532409,2.81900716 C14.8133942,4.21830751 13.8746969,6.25895386 14.239098,8.24712644 C16.2447618,8.2996002 18.3203907,7.11311011 19.5331177,5.5651341 Z" id="Path"></path>
                </g>
            </g>
        </g>
    </g>
</svg>