<svg xmlns="http://www.w3.org/2000/svg" viewBox="0 0 181.72 50"><defs><style>.cls-1{opacity:0.5;}.cls-2{fill:#fff;}</style></defs><title>Asset 5</title><g id="Layer_2" data-name="Layer 2"><g id="Layer_1-2" data-name="Layer 1"><g class="cls-1"><path class="cls-2" d="M7,15.94A6.77,6.77,0,0,0,6,15.84a6.65,6.65,0,0,0-1.06.1L4.7,16v-.19c.09-1.91.18-3.85.18-5.76V6.2c0-1.48,0-3-.06-4.45A42.55,42.55,0,0,0,.23,2L0,2,.07,1.8a2.53,2.53,0,0,0,.1-.67A2.71,2.71,0,0,0,.07.48L0,.28H.22C2.13.35,4,.4,6,.4S9.78.35,11.69.29h.2l-.05.2a2.34,2.34,0,0,0-.11.67,2.16,2.16,0,0,0,.11.65l.07.21-.23,0a42.69,42.69,0,0,0-4.6-.24C7,3.23,7,4.72,7,6.2V10c0,1.91.09,3.85.18,5.76V16Z"/><path class="cls-2" d="M28.32,15.94a5.72,5.72,0,0,0-2.13,0L26,16v-.19c.09-1.91.17-3.85.17-5.76V8.17c-1.5,0-3,0-4.5,0s-3,0-4.5,0V10c0,1.91.09,3.85.18,5.76V16l-.18,0a6.66,6.66,0,0,0-1.07-.1,6.75,6.75,0,0,0-1.06.1l-.18,0v-.19c.09-1.91.17-3.85.17-5.76V6.2c0-1.91-.08-3.84-.17-5.75V.26l.18,0A5.79,5.79,0,0,0,16.12.4,5.72,5.72,0,0,0,17.19.29l.18,0V.45c-.09,1.91-.18,3.85-.18,5.75v.63c1.51,0,3,.07,4.5.07s3,0,4.5-.07V6.2c0-1.9-.08-3.84-.17-5.75V.26l.18,0A5.72,5.72,0,0,0,27.26.4,5.7,5.7,0,0,0,28.32.29l.19,0,0,.19c-.09,1.91-.17,3.85-.17,5.75V10c0,1.91.08,3.85.17,5.76l0,.19Z"/><path class="cls-2" d="M41.27,16c-1.31-.07-2.64-.11-4-.11s-2.68,0-4,.11h-.16v-.16c.09-1.94.18-3.87.18-5.78V6.18c0-1.91-.09-3.84-.18-5.73V.28h.16c1.33.07,2.65.11,4,.11s2.64,0,3.95-.11h.19l0,.19a2.73,2.73,0,0,0-.07.64,2.85,2.85,0,0,0,.07.64l0,.19-.19,0c-1.84-.13-2.92-.28-5.7-.29,0,.9-.08,1.65-.08,2.68s0,2.18,0,2.79c2.53,0,4-.11,5.24-.22l.2,0,0,.2a3.68,3.68,0,0,0-.06.66,3.55,3.55,0,0,0,.06.64l0,.19-.2,0c-1.46-.15-4.09-.19-5.25-.2,0,.5,0,1.14,0,3.08,0,1.56,0,2.6,0,3.19a40.59,40.59,0,0,0,5.84-.28l.22-.05,0,.22a3.7,3.7,0,0,0-.07.66,2.62,2.62,0,0,0,.07.62l0,.19Z"/><path class="cls-2" d="M63.79.46l0-.22.22,0a3.66,3.66,0,0,0,.88.11,2.05,2.05,0,0,0,.61-.1l.22-.08,0,.23c-.18,2.07-.36,6-.4,9.23,0,4-2.41,6.56-6.46,6.56h0c-2.23,0-3.86-.52-4.94-1.61a6.7,6.7,0,0,1-1.58-4.91c0-1.39.11-2.42.11-3.52,0-2.44-.09-4.46-.13-5.76V.26l.19,0A6.1,6.1,0,0,0,53.55.4a4.06,4.06,0,0,0,.92-.11l.2,0,0,.2c-.13,1.31-.26,4.33-.26,7.63,0,3.05,0,6.81,4.81,6.81a4,4,0,0,0,4.13-2.54,12.92,12.92,0,0,0,.6-4.68c0-4.22,0-6.37-.14-7.21"/><path class="cls-2" d="M83.51,16.24H83.2v-.15l.11-.1-.11.1v.15h-.07l0-.06c-3.3-3.89-7.25-8.07-11-12C72.07,5,72,6.26,72,8.3s.09,6.61.2,7.48l0,.22-.22-.06a3,3,0,0,0-.74-.1,3.8,3.8,0,0,0-.79.1l-.21.05,0-.22c.18-1,.47-6.73.46-9.66s0-5-.06-5.95V0h.58l0,.05c3.52,3.82,8.25,9,11,11.78,0-3.89,0-8.07-.18-11.38V.24l.2.06a3,3,0,0,0,.72.1,2.72,2.72,0,0,0,.67-.1L84,.24l0,.21c-.14,1.31-.36,5.72-.36,7.44,0,2.27,0,7.2.07,8.19v.16Z"/><path class="cls-2" d="M90.83,15.94a6.65,6.65,0,0,0-1.06-.1,6.77,6.77,0,0,0-1.07.1l-.18,0v-.19c.09-1.91.18-3.85.18-5.76V6.2c0-1.9-.09-3.84-.18-5.76V.26l.18,0A5.8,5.8,0,0,0,89.77.4,5.7,5.7,0,0,0,90.83.29l.18,0V.44c-.09,1.92-.18,3.86-.18,5.76V10c0,1.91.09,3.85.18,5.76V16Z"/><path class="cls-2" d="M94.13.44a6.51,6.51,0,0,0,1.16.11A6.6,6.6,0,0,0,96.45.44c1.31,3.94,3.2,8.66,5.07,13.15,1.62-3.6,4.12-10.23,5-13.15a3.38,3.38,0,0,0,.83.11,3.3,3.3,0,0,0,.82-.11q-3.48,7.68-6.41,15.36a2.65,2.65,0,0,0-.74-.11,2.43,2.43,0,0,0-.73.11C99,12.13,96.29,5.56,94.13.44"/><path class="cls-2" d="M119.54,16c-1.31-.07-2.64-.11-4-.11s-2.68,0-4,.11h-.17v-.17c.1-1.94.18-3.87.18-5.78V6.18c0-1.91-.08-3.84-.18-5.73V.28h.16c1.34.07,2.65.11,4,.11s2.64,0,4-.11h.19l0,.19a2.73,2.73,0,0,0-.07.64,2.85,2.85,0,0,0,.07.64l0,.19-.19,0c-1.84-.13-2.92-.28-5.7-.29,0,.9-.09,1.65-.09,2.68s0,2.18,0,2.79c2.52,0,4-.11,5.24-.22l.2,0,0,.2a3.6,3.6,0,0,0-.06.66,3.55,3.55,0,0,0,.06.64l0,.19-.2,0c-1.46-.15-4.1-.19-5.25-.2,0,.5,0,1.14,0,3.08,0,1.56,0,2.6,0,3.19a40.52,40.52,0,0,0,5.83-.28l.22-.05,0,.22a4.91,4.91,0,0,0-.06.66,3.26,3.26,0,0,0,.06.62l0,.19Z"/><path class="cls-2" d="M136.89,14.94l-.09-.07,0-.1a6.59,6.59,0,0,0,.42-1.95v-.13h.4v0h.09l.05.08A3.68,3.68,0,0,0,141.19,15a2.92,2.92,0,0,0,3-3.09c0-1.93-1.63-2.48-3.41-3.22s-3.61-1.64-3.6-4.34,2-4.36,5-4.36a5.07,5.07,0,0,1,3.39,1.08l.09.08,0,.11A6.57,6.57,0,0,0,145,3.09l0,.13h-.48l0-.1a2.66,2.66,0,0,0-2.51-2,2.56,2.56,0,0,0-2.72,2.61c0,2,1.63,2.54,3.41,3.25s3.6,1.55,3.6,4.1c0,2.79-2.1,5.15-5.61,5.16h0a5.59,5.59,0,0,1-3.75-1.3"/><path class="cls-2" d="M152.14,15.94a6.77,6.77,0,0,0-1.07-.1,6.65,6.65,0,0,0-1.06.1l-.19,0v-.19c.09-1.91.18-3.85.18-5.76V6.2c0-1.91-.09-3.84-.18-5.76V.26l.19,0a5.7,5.7,0,0,0,1.06.11,5.8,5.8,0,0,0,1.07-.11l.18,0V.44c-.09,1.92-.17,3.85-.17,5.76V10c0,1.91.08,3.85.17,5.76V16Z"/><path class="cls-2" d="M162.29,15.94a6.77,6.77,0,0,0-1.07-.1,6.65,6.65,0,0,0-1.06.1L160,16v-.19c.09-1.91.18-3.85.18-5.76V6.2c0-1.48,0-3-.06-4.45a42.41,42.41,0,0,0-4.6.24l-.23,0,.07-.22a2.47,2.47,0,0,0,.1-.67,2.71,2.71,0,0,0-.1-.65l-.06-.2h.2c1.92.07,3.84.11,5.74.11s3.83,0,5.74-.11h.2l0,.2a2.29,2.29,0,0,0-.11.67,2.16,2.16,0,0,0,.11.65l.06.22L167,2a42.69,42.69,0,0,0-4.6-.24c0,1.48-.07,3-.07,4.45V10c0,1.91.1,3.85.18,5.76V16Z"/><path class="cls-2" d="M168.64.52l-.18-.28.34,0A6.93,6.93,0,0,0,170,.4,7.16,7.16,0,0,0,171.2.29l.1,0,0,.1c1.26,2.47,2.62,4.92,4.1,7.48A75.43,75.43,0,0,0,179.52.38l0-.11.12,0a3.44,3.44,0,0,0,.83.11,3.32,3.32,0,0,0,.83-.11l.37-.08-.21.31c-2.8,4.32-4.4,6.89-5.35,8.75,0,2.17.07,5.15.17,6.52l0,.19-.19,0a6.77,6.77,0,0,0-1.07-.1,6.65,6.65,0,0,0-1.06.1l-.2,0,0-.2c.18-1.56.18-3.9.18-6.26-.92-1.59-4.46-7.62-5.39-9"/><path class="cls-2" d="M8.67,37.31a8.66,8.66,0,0,1-2.44,5.23,4.42,4.42,0,0,1-3.29,1.59C1.46,44.13.5,43,.64,41.06a8.59,8.59,0,0,1,2.51-5.15,4.45,4.45,0,0,1,3.18-1.5c1.63,0,2.43,1.22,2.34,2.9m-4.19-1.1A13.33,13.33,0,0,0,2.18,42c0,.81.28,1.48.94,1.48.51,0,1.09-.21,1.82-1.2a14.21,14.21,0,0,0,2.15-5.62c0-.71-.12-1.52-.93-1.52-.46,0-1,.21-1.68,1.11"/><path class="cls-2" d="M14.2,35.59c-.14.39-.32,1.12-.6,2.14-.69,2.57-1.31,4.78-2,7.32a9.1,9.1,0,0,1-1.82,3.71A4.27,4.27,0,0,1,7,50c-1.24,0-1.68-.78-1.68-1.13a1.37,1.37,0,0,1,.53-1,.38.38,0,0,1,.53.1,2.78,2.78,0,0,0,1.75.94c.46,0,.94-.16,1.47-1.93,1.06-3.64,1.86-7.6,3-11.35H10.63a.58.58,0,0,1,.16-.86h2a14,14,0,0,1,2.58-5.48A4.66,4.66,0,0,1,19,27.34a1.69,1.69,0,0,1,1.78,1.52c0,.6-.62,1.31-1,1.31-.21,0-.3-.2-.32-.37-.07-1.26-.72-1.68-1.29-1.68a2.4,2.4,0,0,0-1.66,1.25,17.16,17.16,0,0,0-2.14,5.36h2.88a.63.63,0,0,1-.23.86Z"/><path class="cls-2" d="M25.06,40.81A58.23,58.23,0,0,0,21.8,50a6.61,6.61,0,0,0-1.43-.21,8.3,8.3,0,0,0-1.55.21c3.12-6.8,8.31-18.24,10.81-24.55a4.65,4.65,0,0,0,.87.11,2.76,2.76,0,0,0,.77-.11C34,32.81,41.72,49.86,41.79,50a10.33,10.33,0,0,0-2.07-.21,12.74,12.74,0,0,0-2.24.21,65,65,0,0,0-3.54-9.19Zm4.39-10.45-3.68,8.7h7.46Z"/><path class="cls-2" d="M54.31,50c-.35,0-4.66-.14-5.57-.14S47,49.89,45,50c.25-3.54.42-6,.42-14,0-5.22-.07-6.56-.28-10.31,1.93.07,3.83.11,5.75.11,6.28,0,9.65,0,12.91,2.59a10.73,10.73,0,0,1,3.86,8.84c0,8.87-6.32,12.8-13.33,12.8M60.2,29.24c-2.45-1.86-5.43-1.86-8.24-1.86a23,23,0,0,0-3.08.14c-.14,3.23-.18,6.8-.18,10,0,6.41,0,7.15.1,10.63a29.84,29.84,0,0,0,3.76.21c1.5,0,4.87,0,7.26-1.69,3.26-2.31,3.93-6.28,3.93-9.08,0-2.63-.6-6.17-3.55-8.38"/><path class="cls-2" d="M83,36.08a5.8,5.8,0,0,0-.14,1.19c0,.39.11.7.14,1.08A45,45,0,0,0,77.53,38c-1,0-2,0-2.84.08,0,1.5-.08,3.08-.08,4.59,0,1.82.08,4.49.11,5.43a83.06,83.06,0,0,0,9.22-.42,5.91,5.91,0,0,0-.14,1.2A4.87,4.87,0,0,0,83.94,50a37.79,37.79,0,0,0-4.87-.21c-2.7,0-5.44.1-8.14.21.22-2.63.39-4.91.39-12.56,0-3.5-.07-8.24-.28-11.67,2.46.21,4.87.21,7.33.21,1.79,0,3.54,0,5.33-.21A6.49,6.49,0,0,0,83.56,27a4.8,4.8,0,0,0,.14,1.12,26.11,26.11,0,0,0-5.58-.45c-1.26,0-1.89,0-3.4.07-.07,1.37-.07,2-.07,4,0,2.28,0,2.7,0,4.56A67,67,0,0,0,83,36.08"/><path class="cls-2" d="M95.94,48.07a46.34,46.34,0,0,0,6.34-.42,5.47,5.47,0,0,0-.14,1.16,5.05,5.05,0,0,0,.14,1.19c-2.27-.07-3.75-.21-7.57-.21-3.09,0-4,.1-5.86.21.28-4.49.32-8.21.32-12.8,0-4.77-.21-10-.28-11.47a8.31,8.31,0,0,0,1.89.21A12,12,0,0,0,93,25.73c-.32,9-.32,11.36-.32,22.27,1.69.07,2.39.07,3.27.07"/><path class="cls-2" d="M109.4,40.81A58.23,58.23,0,0,0,106.14,50a6.62,6.62,0,0,0-1.44-.21,8.3,8.3,0,0,0-1.54.21c3.12-6.8,8.31-18.24,10.8-24.55a5,5,0,0,0,.88.11,2.76,2.76,0,0,0,.77-.11c2.7,7.36,10.45,24.41,10.52,24.55a10.41,10.41,0,0,0-2.07-.21,12.64,12.64,0,0,0-2.24.21,63.52,63.52,0,0,0-3.55-9.19Zm4.39-10.45-3.69,8.7h7.48Z"/><path class="cls-2" d="M130.44,25.73a6.92,6.92,0,0,0,1.93.21,7.76,7.76,0,0,0,2-.21c-.21,4.17-.28,8.35-.28,12.52,0,6.31.13,9.12.24,11.75a13.2,13.2,0,0,0-2.17-.21,8.76,8.76,0,0,0-1.86.21c.24-3.82.35-5.61.35-12.49,0-5,0-5.36-.25-11.78"/><path class="cls-2" d="M150.32,50c-.34,0-4.66-.14-5.57-.14s-1.75,0-3.75.14c.24-3.54.42-6,.42-14,0-5.22-.07-6.56-.28-10.31,1.93.07,3.82.11,5.75.11,6.28,0,9.64,0,12.91,2.59a10.72,10.72,0,0,1,3.85,8.84c0,8.87-6.31,12.8-13.33,12.8m5.9-20.76c-2.46-1.86-5.44-1.86-8.24-1.86a23.09,23.09,0,0,0-3.09.14c-.14,3.23-.17,6.8-.17,10,0,6.41,0,7.15.1,10.63a29.72,29.72,0,0,0,3.76.21c1.5,0,4.87,0,7.25-1.69,3.26-2.31,3.93-6.28,3.93-9.08,0-2.63-.6-6.17-3.54-8.38"/><path class="cls-2" d="M180.38,36.08a5.8,5.8,0,0,0-.14,1.19,9.66,9.66,0,0,0,.14,1.08,45.06,45.06,0,0,0-5.44-.35c-.94,0-2,0-2.83.08,0,1.5-.07,3.08-.07,4.59,0,1.82.07,4.49.1,5.43a83.24,83.24,0,0,0,9.22-.42,5.91,5.91,0,0,0-.14,1.2,4.87,4.87,0,0,0,.14,1.12,37.79,37.79,0,0,0-4.87-.21c-2.7,0-5.44.1-8.14.21.21-2.63.39-4.91.39-12.56,0-3.5-.07-8.24-.28-11.67,2.45.21,4.87.21,7.33.21,1.78,0,3.54,0,5.33-.21A6.49,6.49,0,0,0,181,27a4.8,4.8,0,0,0,.14,1.12,26.11,26.11,0,0,0-5.58-.45c-1.26,0-1.89,0-3.4.07-.07,1.37-.07,2-.07,4,0,2.28,0,2.7,0,4.56a67,67,0,0,0,8.27-.24"/><rect class="cls-2" x="0.17" y="20.41" width="180.92" height="0.38"/><path class="cls-2" d="M134.87,15.7c-1.23-1.38-4.68-5.81-5.94-7.38,1.74-.31,4.42-1.51,4.44-4.36a3.22,3.22,0,0,0-1.44-2.88,6.2,6.2,0,0,0-3.34-.79c-.86,0-1.71.11-2.53.11s-1.69,0-2.53-.11h-.17V.45c.09,1.91.18,3.84.18,5.75V10c0,1.91-.09,3.85-.18,5.76V16l.18,0a6.75,6.75,0,0,1,1.06-.1,6.66,6.66,0,0,1,1.07.1l.18,0v-.19c-.08-1.91-.17-3.85-.17-5.76V8.56h.63a63.31,63.31,0,0,1,5.7,7.32l.06.08h.09a7.78,7.78,0,0,1,1.27-.11,8.37,8.37,0,0,1,1.31.11l.41.06ZM127,7.43a7.52,7.52,0,0,1-1.34-.08V6.2c0-1.55.06-3.11.12-4.69.46,0,1.09-.1,2-.1,1.49,0,3.3.54,3.3,2.77,0,2.52-2.3,3.25-4.1,3.25"/></g></g></g></svg>