<svg xmlns="http://www.w3.org/2000/svg" viewBox="0 0 243.57 50"><defs><style>.cls-1{opacity:0.5;}.cls-2{fill:#fff;}</style></defs><title>Asset 3</title><g id="Layer_2" data-name="Layer 2"><g id="Layer_1-2" data-name="Layer 1"><g class="cls-1"><path class="cls-2" d="M235.62,44.9v-9L241.91,46h.61v-11l1-1h-3.15l1,1v7.68L236,33.87h-2.49l1,1v10l-1,1.05h3.15Zm-9.33.39c-2.41,0-3.25-2.89-3.25-5.38s.84-5.39,3.25-5.39,3.28,2.89,3.28,5.39-.84,5.38-3.28,5.38m-4.83-5.38c0,3.07,1.74,6.3,4.83,6.3s4.85-3.23,4.85-6.3-1.74-6.31-4.85-6.31-4.83,3.24-4.83,6.31M216,45V34.77h2.29l1.29,1.29V33.87h-8.5v2.19l1.31-1.29h2.28V45l-.94,1H217Zm-8.95-4.53v3.89a2.58,2.58,0,0,1-2,.86c-2.68,0-4-2.7-4-5.3s1.7-5.31,4-5.31a1.85,1.85,0,0,1,1.47.58l1.33,1.31V34.4a5.34,5.34,0,0,0-2.8-.7c-3.3,0-5.61,2.95-5.61,6.21s2.31,6.2,5.61,6.2a5.3,5.3,0,0,0,3.32-.88V40.46l.94-1h-3.24ZM189.14,44.9v-9L195.5,46H196v-11l1.05-1h-3.15l1,1v7.68l-5.45-8.72H187l1,1v10L187,46h3.16Zm-8.66-11,1,1V45l-1,1h3.26l-1-1V34.83l1-1Zm-10.72,6h5.07V45l-1,1h3.26l-1-1V34.83l1-1h-3.26l1,1V39h-5.07V34.83l1-1h-3.24l1,1V45l-1,1h3.24l-1-1Zm-5.45,2.7a2.67,2.67,0,0,0-1.13-2.32l-2.45-1.78a2.83,2.83,0,0,1-1.33-2.06,1.7,1.7,0,0,1,1.74-1.72,7,7,0,0,1,.77.14L163,36l1.13-1.68-2.4-.45a2,2,0,0,0-.57-.06,3,3,0,0,0-3.07,3,3.5,3.5,0,0,0,1.55,2.77l2.48,1.78a2.07,2.07,0,0,1,.86,1.76,2,2,0,0,1-2,2.13,2.1,2.1,0,0,1-.84-.16L159,43.7l-1.05,1.88,2.31.45a4.26,4.26,0,0,0,.72.08,3.47,3.47,0,0,0,3.36-3.52m-13.52-6,1.66,5h-3.38ZM147.89,45l.88-2.55h4L153.6,45l-.94,1h3.42l-1-1-3.76-11.09h-.62L146.9,45l-1,1h2.91ZM135,46l2.77-8.75L140.49,46h.61l3.5-11.12,1-1h-2.91l.94.94-2.56,8.35-2.48-8.35.95-.94h-3.42l1,1,.25.8L135,43.16l-2.48-8.35.95-.94h-3.42l1,1L134.43,46Zm-17.9-7.24-.46.44,0,.17h1.42l-.75,5c-.46,3.18-.85,4.3-1.18,4.57a.58.58,0,0,1-.42.16,2.32,2.32,0,0,1-.75-.26.41.41,0,0,0-.48.12,1.07,1.07,0,0,0-.29.58c0,.34.45.51.74.51a2.88,2.88,0,0,0,1.87-1.17c.57-.72,1.36-2.37,2-6.21.12-.72.26-1.43.54-3.3l1.74-.17.37-.44h-2c.51-3.15.93-4.1,1.66-4.1a1.82,1.82,0,0,1,1.31.56.34.34,0,0,0,.48,0,1,1,0,0,0,.34-.63c0-.34-.44-.71-1-.71a3.77,3.77,0,0,0-2.74,1.43,7.63,7.63,0,0,0-1.34,3.47Zm-7.65,4.45c0-2.51,1.27-3.88,1.8-4.1a1.76,1.76,0,0,1,.56-.13c.85,0,1.34.64,1.34,2,0,2.21-1.12,4.22-1.83,4.46a1.79,1.79,0,0,1-.53.12c-1,0-1.34-1-1.34-2.3m2.9-4.86a4,4,0,0,0-1.83.61,5.32,5.32,0,0,0-2.45,4.66c0,1.19.56,2.52,2.14,2.52A4.43,4.43,0,0,0,112.79,45a6.09,6.09,0,0,0,1.78-4.29,2.09,2.09,0,0,0-2.18-2.36M92.68,34.83l3.06,5.51V45l-1,1H98l-1-1V40.34l3.11-5.49,1-1h-3l1,.94L96.6,39.33l-2.42-4.52.94-.94H91.7ZM86.32,45V34.77h2.29l1.29,1.29V33.87H81.4v2.19l1.32-1.29H85V45l-.94,1h3.23Zm-11-11.12,1,1V45l-1,1h3.26l-1-1V34.83l1-1Zm-3.5,8.72a2.69,2.69,0,0,0-1.12-2.32l-2.46-1.78A2.83,2.83,0,0,1,67,36.43a1.7,1.7,0,0,1,1.74-1.72,7.25,7.25,0,0,1,.78.14L70.53,36l1.13-1.68-2.4-.45a1.91,1.91,0,0,0-.57-.06,3,3,0,0,0-3.07,3,3.5,3.5,0,0,0,1.55,2.77l2.48,1.78a2,2,0,0,1,.86,1.76,2,2,0,0,1-2,2.13,2.06,2.06,0,0,1-.84-.16L66.52,43.7l-1,1.88,2.31.45a4.26,4.26,0,0,0,.72.08,3.46,3.46,0,0,0,3.35-3.52M56.34,34.77h1.48a2.37,2.37,0,0,1,2.31,2.41,2.27,2.27,0,0,1-2.31,2.24H56.34Zm0,10.22V40.32h1.83L61.09,46h2l-.94-1-2.7-5a3.17,3.17,0,0,0,2.27-2.83c0-2-1.9-3.33-3.91-3.33H54.07l.94,1V45l-.94,1h3.24Zm-5.42,1V43.74l-1.29,1.31H46V40h2.73l1,1V38.11l-1,1H46v-4.3h3.67l1.29,1.29V33.87H43.69l.94,1V45l-.94,1ZM35.26,33.87H31.84l1,1L36.22,46h.61l3.5-11.12,1-1H38.41l.94.94-2.56,8.35-2.48-8.35Zm-9.38,0,1,1V45l-1,1h3.25l-1-1V34.83l1-1Zm-11.24,11v-9L21.12,46h.42v-11l1-1H19.43l1,1v7.68L15,33.87h-2.5l1,1v10l-1,1.05h3.15ZM1,42.71a3.6,3.6,0,0,0,3.75,3.5,3.76,3.76,0,0,0,3.91-3.5v-7.8l1-1H6.57l1,1v7.8a2.49,2.49,0,0,1-2.5,2.5,2.6,2.6,0,0,1-2.66-2.5v-7.8l1-1H0l1,1Z"/><polygon class="cls-2" points="105.59 0 105.59 4.01 108.13 4.01 112.59 21.94 118.86 21.94 121.83 10.72 124.68 21.94 130.94 21.94 135.65 4.01 138.07 4.01 138.07 0 129.46 0 129.46 4.01 132.31 4.01 129.21 15.68 125.36 0 121.4 0 117.18 15.81 114.14 4.01 117.24 4.01 117.24 0 105.59 0"/></g></g></g></svg>