<svg xmlns="http://www.w3.org/2000/svg" viewBox="0 0 182.72 50"><defs><style>.cls-1{opacity:0.5;}.cls-2{fill:#fff;}.cls-3{fill:#499cc5;}.cls-4{fill:#71c7e5;}.cls-5{fill:#9d2538;}.cls-6{fill:#4a515f;}</style></defs><title>Asset 2</title><g id="Layer_2" data-name="Layer 2"><g id="Layer_1-2" data-name="Layer 1"><g class="cls-1"><path class="cls-2" d="M64.21,14a11,11,0,0,1,6.55,2.16h0V14H75.2V36H70.81V33.83A10.7,10.7,0,0,1,64.55,36H64a10.86,10.86,0,0,1-8.56-4.33A11.3,11.3,0,0,1,53.18,25,10.92,10.92,0,0,1,57.9,16,11.1,11.1,0,0,1,64.21,14ZM57.56,25a6.66,6.66,0,0,0,3.52,5.87,6.55,6.55,0,0,0,3,.77h.28a6.57,6.57,0,0,0,6.42-6.4v-.3a6.56,6.56,0,0,0-3.27-5.63,7,7,0,0,0-3.37-.92,6.58,6.58,0,0,0-5.35,2.79A6.73,6.73,0,0,0,57.56,25Z"/><path class="cls-2" d="M84.32,14H103.6v4.38H84.32c-1.19,0-1.93.2-2.22.59a3,3,0,0,0-.62,1.73,1.93,1.93,0,0,0,1.36,2l.81.15h5.89c3.56,0,5.89,1.37,7,4.09A8,8,0,0,1,97,29.45a6.11,6.11,0,0,1-3.61,5.87,6.65,6.65,0,0,1-2.75.68H70.09V31.61H90.35a2.05,2.05,0,0,0,2.07-1.3l.15-.92c0-1.48-.9-2.22-2.69-2.22H83.52a6.76,6.76,0,0,1-4.63-1.92,6.43,6.43,0,0,1-1.79-4.63A7.12,7.12,0,0,1,78.83,16C80,14.65,81.8,14,84.32,14Z"/><path class="cls-2" d="M99.31,14h4.39v2.16h.09A11,11,0,0,1,119,18.22a10.74,10.74,0,0,1,2.31,6.46v.67A10.93,10.93,0,0,1,110.77,36h-.86a10.57,10.57,0,0,1-6.12-2.13h-.09V49.26H99.31Zm4.39,11a6.66,6.66,0,0,0,3.46,5.87,6.83,6.83,0,0,0,2.9.77h.58a6.6,6.6,0,0,0,5-2.6,7,7,0,0,0,1.3-3.91v-.19a6.48,6.48,0,0,0-2.85-5.34,6.75,6.75,0,0,0-3.76-1.21A6.64,6.64,0,0,0,105,21.16,6.73,6.73,0,0,0,103.7,25Z"/><path class="cls-2" d="M122.85,14h4.38v2.5h.06A14.64,14.64,0,0,1,136,14v4.38q-6.36,0-8.28,4.44a6.5,6.5,0,0,0-.53,2.41V36h-4.38Z"/><path class="cls-2" d="M147.84,14a11,11,0,0,1,8.38,3.89,11.21,11.21,0,0,1,2.59,7.1,13.73,13.73,0,0,1-.22,2.2h-17a6.42,6.42,0,0,0,3.23,3.73,6.64,6.64,0,0,0,7.66-1.21l3.07,3.07v.06a10.82,10.82,0,0,1-7.7,3.18h-.09a10.88,10.88,0,0,1-8.4-3.9A11,11,0,0,1,147.84,14Zm-6.26,8.82H154a6.78,6.78,0,0,0-3-3.61,7.37,7.37,0,0,0-3.27-.83A6.68,6.68,0,0,0,142,21.73Z"/><path class="cls-2" d="M160.7,14h4.38V15.9h.06A11.19,11.19,0,0,1,171.69,14q7.34,0,10.2,6.6a11.91,11.91,0,0,1,.83,4.24V36h-4.39V25a7.12,7.12,0,0,0-1.69-4.69,6.4,6.4,0,0,0-4.95-1.92q-4.51,0-6.08,3.9a7.86,7.86,0,0,0-.53,2.84V36H160.7Z"/><circle class="cls-3" cx="25.03" cy="25.08" r="9.5"/><circle class="cls-4" cx="25.03" cy="25.08" r="6.94"/><circle class="cls-2" cx="13.88" cy="19.94" r="1.35"/><path class="cls-3" d="M13.88,21.68a1.76,1.76,0,0,1-1.61-1.1,1.68,1.68,0,0,1,0-1.32,1.73,1.73,0,1,1,3.18,1.37h0A1.74,1.74,0,0,1,13.88,21.68Zm0-2.7a1,1,0,0,0-.89.58,1,1,0,0,0,0,.74,1,1,0,0,0,.52.53,1,1,0,0,0,.76-1.77A.84.84,0,0,0,13.88,19Z"/><circle class="cls-2" cx="9.82" cy="18.2" r="1.54"/><path class="cls-4" d="M9.82,20.22a1.83,1.83,0,0,1-.8-.17,2,2,0,1,1,2.68-2.6,2,2,0,0,1,0,1.54h0a2.08,2.08,0,0,1-1.11,1.09A2.21,2.21,0,0,1,9.82,20.22Zm0-3.08a1.06,1.06,0,0,0-.42,2,1,1,0,0,0,.81,0,1,1,0,0,0,.58-.57h0a1,1,0,0,0,0-.81,1,1,0,0,0-.57-.58A1,1,0,0,0,9.82,17.14Z"/><circle class="cls-2" cx="3.9" cy="15.65" r="2.7"/><path class="cls-4" d="M3.9,19.12a3.43,3.43,0,0,1-1.37-.28,3.47,3.47,0,1,1,2.74-6.37A3.46,3.46,0,0,1,7.08,17h0a3.47,3.47,0,0,1-1.9,1.86A3.54,3.54,0,0,1,3.9,19.12Zm0-5.4a2,2,0,0,0-.72.14,1.9,1.9,0,0,0-1.05,1,1.92,1.92,0,0,0,1,2.53,1.88,1.88,0,0,0,1.47,0,1.91,1.91,0,0,0,1.06-1h0a1.92,1.92,0,0,0,0-1.47,1.94,1.94,0,0,0-1-1.06A2,2,0,0,0,3.9,13.72Z"/><circle class="cls-2" cx="36.12" cy="30.06" r="1.35"/><path class="cls-3" d="M36.12,31.79a1.63,1.63,0,0,1-.68-.14,1.73,1.73,0,0,1-.91-2.28h0a1.73,1.73,0,0,1,3.18,1.37,1.7,1.7,0,0,1-1,.93A1.73,1.73,0,0,1,36.12,31.79Zm-.88-2.11a.91.91,0,0,0,0,.74.93.93,0,0,0,.51.52.91.91,0,0,0,.74,0,1,1,0,0,0,.53-.51,1,1,0,0,0-.51-1.27,1,1,0,0,0-1.26.51Z"/><circle class="cls-2" cx="40.18" cy="31.8" r="1.54"/><path class="cls-4" d="M40.18,33.83a2.05,2.05,0,0,1-.8-.17A2,2,0,0,1,38.32,31h0A2,2,0,0,1,42,32.6a2,2,0,0,1-1.11,1.08A1.93,1.93,0,0,1,40.18,33.83Zm-1-2.44a1.06,1.06,0,0,0,.56,1.39,1.06,1.06,0,0,0,1.39-.56,1.06,1.06,0,1,0-1.95-.83Z"/><circle class="cls-2" cx="46.1" cy="34.35" r="2.7"/><path class="cls-4" d="M46.1,37.82a3.48,3.48,0,0,1-1.37-.29A3.46,3.46,0,0,1,42.92,33h0a3.46,3.46,0,0,1,6.4.08,3.41,3.41,0,0,1,0,2.66,3.45,3.45,0,0,1-1.9,1.85A3.61,3.61,0,0,1,46.1,37.82Zm-1.77-4.23a1.92,1.92,0,0,0,0,1.47,1.92,1.92,0,0,0,3.56,0,1.9,1.9,0,0,0,0-1.48,1.86,1.86,0,0,0-1-1.05,1.93,1.93,0,0,0-2.53,1Z"/><circle class="cls-2" cx="13.56" cy="29.29" r="1.35"/><path class="cls-3" d="M13.56,31a1.85,1.85,0,0,1-.69-.14,1.73,1.73,0,1,1,2.3-2.24,1.75,1.75,0,0,1-1,2.26A1.77,1.77,0,0,1,13.56,31Zm0-2.7a.92.92,0,0,0-.36.07,1,1,0,0,0-.53.52,1,1,0,1,0,1.78,0h0A1,1,0,0,0,13.56,28.32Z"/><circle class="cls-2" cx="9.45" cy="30.93" r="1.54"/><path class="cls-4" d="M9.45,33a2.05,2.05,0,0,1-.8-.17,2,2,0,0,1-1.06-2.65A2,2,0,0,1,8.7,29.05a2,2,0,0,1,1.55,0,2,2,0,0,1,1.08,1.11A2,2,0,0,1,10.2,32.8,1.93,1.93,0,0,1,9.45,33Zm0-3.09a1.07,1.07,0,0,0-1,.65A1.06,1.06,0,0,0,9,31.9a1.08,1.08,0,0,0,.81,0,1.07,1.07,0,0,0,.6-1.38h0A1.08,1.08,0,0,0,9.87,30,1,1,0,0,0,9.45,29.86Z"/><circle class="cls-2" cx="3.47" cy="33.31" r="2.7"/><path class="cls-4" d="M3.47,36.78A3.47,3.47,0,1,1,6.69,32h0a3.45,3.45,0,0,1-1.94,4.5A3.39,3.39,0,0,1,3.47,36.78Zm0-5.39a2,2,0,0,0-.72.13A1.94,1.94,0,0,0,1.68,34a1.92,1.92,0,0,0,2.5,1.07,1.88,1.88,0,0,0,1.06-1,1.92,1.92,0,0,0,0-1.47h0A1.92,1.92,0,0,0,3.47,31.39Z"/><circle class="cls-2" cx="36.44" cy="20.71" r="1.35"/><path class="cls-3" d="M36.44,22.45a1.8,1.8,0,0,1-.68-.14,1.73,1.73,0,0,1-.93-.95h0a1.75,1.75,0,0,1,1-2.26,1.73,1.73,0,0,1,1.28,3.22A1.56,1.56,0,0,1,36.44,22.45Zm-.89-1.38a.92.92,0,0,0,.51.53,1,1,0,0,0,.74,0,1,1,0,1,0-.72-1.79.93.93,0,0,0-.52.51.91.91,0,0,0,0,.74Z"/><circle class="cls-2" cx="40.55" cy="19.07" r="1.54"/><path class="cls-4" d="M40.55,21.1a2.05,2.05,0,0,1-.8-.17,2,2,0,0,1-1.08-1.11h0a2,2,0,0,1,3.76-1.5A2,2,0,0,1,41.3,21,2,2,0,0,1,40.55,21.1Zm-1-1.63a1.07,1.07,0,0,0,1.38.59,1.07,1.07,0,0,0,.59-1.38A1,1,0,0,0,41,18.1a1.08,1.08,0,0,0-.81,0,1.1,1.1,0,0,0-.59.57,1.08,1.08,0,0,0,0,.81Z"/><circle class="cls-2" cx="46.53" cy="16.69" r="2.7"/><path class="cls-4" d="M46.53,20.16a3.48,3.48,0,0,1-1.37-.29A3.42,3.42,0,0,1,43.31,18h0a3.47,3.47,0,1,1,4.51,1.94A3.4,3.4,0,0,1,46.53,20.16ZM44.74,17.4a1.94,1.94,0,0,0,1,1.06,1.93,1.93,0,1,0-1-1.06Z"/><circle class="cls-2" cx="19.94" cy="36.12" r="1.35"/><path class="cls-3" d="M19.94,37.86a1.64,1.64,0,0,1-.68-.15,1.72,1.72,0,0,1-.91-2.27,1.73,1.73,0,1,1,3.18,1.37A1.76,1.76,0,0,1,19.94,37.86Zm0-2.7a.92.92,0,0,0-.36.07.9.9,0,0,0-.52.51,1,1,0,1,0,1.77.76,1,1,0,0,0,0-.74,1,1,0,0,0-.52-.52h0A.84.84,0,0,0,19.94,35.16Z"/><circle class="cls-2" cx="18.2" cy="40.18" r="1.54"/><path class="cls-4" d="M18.19,42.21A2,2,0,0,1,17.4,42,2,2,0,0,1,19,38.32h0a2,2,0,0,1-.8,3.89Zm0-3.09a1.06,1.06,0,0,0-.42,2,1.06,1.06,0,0,0,1.39-.56,1.06,1.06,0,0,0-.56-1.39h0A1,1,0,0,0,18.2,39.12Z"/><circle class="cls-2" cx="15.65" cy="46.1" r="2.7"/><path class="cls-4" d="M15.65,49.57a3.5,3.5,0,0,1-1.37-.28,3.47,3.47,0,1,1,4.59-4.47,3.39,3.39,0,0,1,0,2.65A3.48,3.48,0,0,1,15.65,49.57Zm0-5.39a1.92,1.92,0,1,0,1.76,2.68,1.88,1.88,0,0,0,0-1.47,1.91,1.91,0,0,0-1-1.06h0A2,2,0,0,0,15.66,44.18Z"/><circle class="cls-2" cx="30.06" cy="13.88" r="1.35"/><path class="cls-3" d="M30.06,15.61a1.67,1.67,0,0,1-.69-.14,1.73,1.73,0,0,1-.9-2.27,1.7,1.7,0,0,1,1-.93,1.68,1.68,0,0,1,1.32,0,1.7,1.7,0,0,1,.93,1,1.68,1.68,0,0,1,0,1.32,1.7,1.7,0,0,1-.95.93A1.77,1.77,0,0,1,30.06,15.61Zm0-2.69a1.13,1.13,0,0,0-.36.06,1,1,0,0,0-.53.52,1,1,0,0,0,.51,1.26.91.91,0,0,0,.74,0,.93.93,0,0,0,.52-.51.91.91,0,0,0,0-.74,1,1,0,0,0-.51-.53A1,1,0,0,0,30.06,12.92Z"/><circle class="cls-2" cx="31.8" cy="9.82" r="1.54"/><path class="cls-4" d="M31.8,11.84a2,2,0,0,1-.79-.16,2.08,2.08,0,0,1-1.09-1.11A2,2,0,0,1,32.6,8a2,2,0,0,1,1.06,2.65A2,2,0,0,1,31.8,11.84Zm0-3.08a1.06,1.06,0,0,0-1,.64,1,1,0,0,0,0,.81,1,1,0,0,0,.57.58h0a1.06,1.06,0,0,0,1.39-.56,1.06,1.06,0,0,0-.56-1.39A1,1,0,0,0,31.81,8.76Z"/><circle class="cls-2" cx="34.35" cy="3.9" r="2.7"/><path class="cls-4" d="M34.35,7.37A3.44,3.44,0,0,1,33,7.08h0a3.47,3.47,0,1,1,4.55-1.81,3.42,3.42,0,0,1-1.9,1.85A3.35,3.35,0,0,1,34.35,7.37Zm-.76-1.7a1.92,1.92,0,0,0,1.47,0,1.92,1.92,0,0,0,0-3.56,1.93,1.93,0,0,0-1.52,3.54Z"/><circle class="cls-2" cx="20.71" cy="13.56" r="1.35"/><path class="cls-3" d="M20.71,15.29a1.63,1.63,0,0,1-.68-.14,1.7,1.7,0,0,1-.93-1,1.73,1.73,0,0,1,3.22-1.28,1.68,1.68,0,0,1,0,1.32,1.73,1.73,0,0,1-.95.93A1.82,1.82,0,0,1,20.71,15.29Zm0-2.69a1,1,0,0,0-.35.06,1,1,0,0,0-.54,1.26.93.93,0,0,0,.51.52.91.91,0,0,0,.74,0h0a.92.92,0,0,0,.53-.51,1,1,0,0,0,0-.74A1,1,0,0,0,20.71,12.6Z"/><circle class="cls-2" cx="19.07" cy="9.45" r="1.54"/><path class="cls-4" d="M19.08,11.48A2,2,0,1,1,21,8.7a2,2,0,0,1,0,1.55,2,2,0,0,1-1.11,1.08A1.92,1.92,0,0,1,19.08,11.48Zm0-3.09a1.09,1.09,0,0,0-.39.08,1.05,1.05,0,0,0-.59,1.37,1.1,1.1,0,0,0,.57.59,1.08,1.08,0,0,0,.81,0h0a1.06,1.06,0,0,0,0-2A1,1,0,0,0,19.07,8.39Z"/><circle class="cls-2" cx="16.69" cy="3.47" r="2.7"/><path class="cls-4" d="M16.69,6.94a3.46,3.46,0,0,1-3.22-2.19,3.39,3.39,0,0,1,0-2.65A3.47,3.47,0,1,1,18,6.69h0A3.39,3.39,0,0,1,16.69,6.94Zm0-5.4a2,2,0,0,0-.71.14,1.93,1.93,0,0,0-1.05,1,1.88,1.88,0,0,0,0,1.47,1.93,1.93,0,1,0,1.78-2.64Z"/><circle class="cls-2" cx="29.29" cy="36.44" r="1.35"/><path class="cls-3" d="M29.29,38.17a1.73,1.73,0,0,1-.65-3.34h0a1.73,1.73,0,1,1,1.29,3.22A1.61,1.61,0,0,1,29.29,38.17Zm-.36-2.62a1,1,0,0,0-.54,1.25,1,1,0,1,0,1.79-.72,1,1,0,0,0-1.25-.53Z"/><circle class="cls-2" cx="12.79" cy="24.55" r="1.35"/><path class="cls-5" d="M12.79,26.29h0a1.74,1.74,0,1,1,1.77-1.71h0A1.74,1.74,0,0,1,12.79,26.29Zm0-2.7a1,1,0,1,0,1,1,1,1,0,0,0-1-1Z"/><circle class="cls-2" cx="37.21" cy="25.45" r="1.35"/><path class="cls-5" d="M37.21,27.18h0A1.73,1.73,0,0,1,36,26.65a1.76,1.76,0,0,1-.49-1.23h0A1.75,1.75,0,0,1,36,24.2a1.73,1.73,0,0,1,2.45,0,1.74,1.74,0,0,1,0,2.45A1.73,1.73,0,0,1,37.21,27.18Zm-1-1.75a.94.94,0,0,0,.27.69,1,1,0,0,0,.67.29.94.94,0,0,0,.69-.27,1,1,0,0,0,.29-.68.9.9,0,0,0-.27-.68,1,1,0,0,0-.68-.3,1,1,0,0,0-.68.28.9.9,0,0,0-.29.67Z"/><circle class="cls-2" cx="16.05" cy="33.32" r="1.35"/><path class="cls-5" d="M16.05,35.05a1.71,1.71,0,0,1-1.24-.53,1.74,1.74,0,0,1,0-2.45,1.75,1.75,0,0,1,1.24-.49,1.77,1.77,0,0,1,1.22.53,1.7,1.7,0,0,1,.48,1.23,1.69,1.69,0,0,1-.52,1.22A1.72,1.72,0,0,1,16.05,35.05Zm0-2.7A1,1,0,0,0,15.36,34a1,1,0,0,0,1.36,0,.92.92,0,0,0,.29-.68.9.9,0,0,0-.27-.68h0a1,1,0,0,0-.67-.3Z"/><circle class="cls-2" cx="33.95" cy="16.68" r="1.35"/><path class="cls-5" d="M34,18.42h0a1.77,1.77,0,0,1-1.22-.53,1.7,1.7,0,0,1-.48-1.23,1.69,1.69,0,0,1,.52-1.22,1.74,1.74,0,0,1,2.42,2.49A1.77,1.77,0,0,1,34,18.42Zm0-2.7a1,1,0,0,0-.67.27.92.92,0,0,0-.29.68.9.9,0,0,0,.27.68h0a1,1,0,0,0,.67.3h0a1,1,0,1,0,0-1.93Z"/><circle class="cls-2" cx="24.55" cy="37.21" r="1.35"/><path class="cls-5" d="M24.55,38.94h0a1.72,1.72,0,0,1-1.71-1.76,1.74,1.74,0,1,1,1.73,1.76Zm0-2.69a1,1,0,0,0-1,.94,1,1,0,0,0,.27.69,1,1,0,0,0,.68.29h0a1,1,0,1,0,0-1.92Z"/><circle class="cls-2" cx="25.45" cy="12.79" r="1.35"/><path class="cls-5" d="M25.45,14.53h0a1.74,1.74,0,1,1,0-3.47,1.72,1.72,0,0,1,1.71,1.76A1.73,1.73,0,0,1,25.45,14.53Zm0-2.7a1,1,0,0,0-.69,1.63.9.9,0,0,0,.67.29h0a1,1,0,0,0,1-.94,1,1,0,0,0-.27-.69,1,1,0,0,0-.68-.29Z"/><circle class="cls-2" cx="16.68" cy="16.05" r="1.35"/><path class="cls-5" d="M16.68,17.78a1.73,1.73,0,0,1-1.2-3,1.73,1.73,0,1,1,1.2,3Zm0-2.69a1,1,0,1,0,.7.29A1,1,0,0,0,16.68,15.09Z"/><circle class="cls-2" cx="33.32" cy="33.95" r="1.35"/><path class="cls-5" d="M33.32,35.68h0a1.7,1.7,0,0,1-1.22-.52,1.74,1.74,0,0,1,0-2.46,1.7,1.7,0,0,1,1.23-.48,1.69,1.69,0,0,1,1.22.52A1.72,1.72,0,0,1,35.05,34a1.74,1.74,0,0,1-1.73,1.7Zm0-2.69a.92.92,0,0,0-.67.27h0a1,1,0,0,0-.3.67,1,1,0,0,0,.27.69,1,1,0,0,0,.68.29.94.94,0,0,0,.69-.27,1,1,0,0,0,0-1.36.92.92,0,0,0-.68-.29Z"/><circle class="cls-2" cx="30.93" cy="40.55" r="1.54"/><path class="cls-4" d="M30.93,42.57a2,2,0,0,1-.75-3.9h0a2,2,0,0,1,1.5,3.76A2,2,0,0,1,30.93,42.57Zm-.4-3a1.06,1.06,0,1,0,.79,2,1.05,1.05,0,0,0,.59-1.37,1.07,1.07,0,0,0-1.38-.6Z"/><circle class="cls-2" cx="33.31" cy="46.53" r="2.7"/><path class="cls-4" d="M33.32,50A3.47,3.47,0,0,1,32,43.31h0a3.48,3.48,0,0,1,2.65,0,3.43,3.43,0,0,1,1.85,1.91,3.47,3.47,0,0,1-1.93,4.5A3.43,3.43,0,0,1,33.32,50Zm-.72-5.26a1.93,1.93,0,1,0,2.5,1.08,1.88,1.88,0,0,0-1-1.06,1.92,1.92,0,0,0-1.47,0Z"/><circle class="cls-2" cx="25.03" cy="25.08" r="9.5"/><circle class="cls-6" cx="25.03" cy="25.08" r="6.94"/><circle class="cls-6" cx="13.88" cy="19.94" r="1.35"/><path class="cls-2" d="M13.88,21.68a1.76,1.76,0,0,1-1.61-1.1,1.68,1.68,0,0,1,0-1.32,1.73,1.73,0,1,1,3.18,1.37h0A1.74,1.74,0,0,1,13.88,21.68Zm0-2.7a1,1,0,0,0-.89.58,1,1,0,0,0,0,.74,1,1,0,0,0,.52.53,1,1,0,0,0,.76-1.77A.84.84,0,0,0,13.88,19Z"/><circle class="cls-6" cx="9.82" cy="18.2" r="1.54"/><path class="cls-2" d="M9.82,20.22a1.83,1.83,0,0,1-.8-.17,2,2,0,1,1,2.68-2.6,2,2,0,0,1,0,1.54h0a2.08,2.08,0,0,1-1.11,1.09A2.21,2.21,0,0,1,9.82,20.22Zm0-3.08a1.06,1.06,0,0,0-.42,2,1,1,0,0,0,.81,0,1,1,0,0,0,.58-.57h0a1,1,0,0,0,0-.81,1,1,0,0,0-.57-.58A1,1,0,0,0,9.82,17.14Z"/><circle class="cls-6" cx="3.9" cy="15.65" r="2.7"/><path class="cls-2" d="M3.9,19.12a3.43,3.43,0,0,1-1.37-.28,3.47,3.47,0,1,1,2.74-6.37A3.46,3.46,0,0,1,7.08,17h0a3.47,3.47,0,0,1-1.9,1.86A3.54,3.54,0,0,1,3.9,19.12Zm0-5.4a2,2,0,0,0-.72.14,1.9,1.9,0,0,0-1.05,1,1.92,1.92,0,0,0,1,2.53,1.88,1.88,0,0,0,1.47,0,1.91,1.91,0,0,0,1.06-1h0a1.92,1.92,0,0,0,0-1.47,1.94,1.94,0,0,0-1-1.06A2,2,0,0,0,3.9,13.72Z"/><circle class="cls-6" cx="36.12" cy="30.06" r="1.35"/><path class="cls-2" d="M36.12,31.79a1.63,1.63,0,0,1-.68-.14,1.73,1.73,0,0,1-.91-2.28h0a1.73,1.73,0,0,1,3.18,1.37,1.7,1.7,0,0,1-1,.93A1.73,1.73,0,0,1,36.12,31.79Zm-.88-2.11a.91.91,0,0,0,0,.74.93.93,0,0,0,.51.52.91.91,0,0,0,.74,0,1,1,0,0,0,.53-.51,1,1,0,0,0-.51-1.27,1,1,0,0,0-1.26.51Z"/><circle class="cls-6" cx="40.18" cy="31.8" r="1.54"/><path class="cls-2" d="M40.18,33.83a2.05,2.05,0,0,1-.8-.17A2,2,0,0,1,38.32,31h0A2,2,0,0,1,42,32.6a2,2,0,0,1-1.11,1.08A1.93,1.93,0,0,1,40.18,33.83Zm-1-2.44a1.06,1.06,0,0,0,.56,1.39,1.06,1.06,0,0,0,1.39-.56,1.06,1.06,0,1,0-1.95-.83Z"/><circle class="cls-6" cx="46.1" cy="34.35" r="2.7"/><path class="cls-2" d="M46.1,37.82a3.48,3.48,0,0,1-1.37-.29A3.46,3.46,0,0,1,42.92,33h0a3.46,3.46,0,0,1,6.4.08,3.41,3.41,0,0,1,0,2.66,3.45,3.45,0,0,1-1.9,1.85A3.61,3.61,0,0,1,46.1,37.82Zm-1.77-4.23a1.92,1.92,0,0,0,0,1.47,1.92,1.92,0,0,0,3.56,0,1.9,1.9,0,0,0,0-1.48,1.86,1.86,0,0,0-1-1.05,1.93,1.93,0,0,0-2.53,1Z"/><circle class="cls-6" cx="13.56" cy="29.29" r="1.35"/><path class="cls-2" d="M13.56,31a1.85,1.85,0,0,1-.69-.14,1.73,1.73,0,1,1,2.3-2.24,1.75,1.75,0,0,1-1,2.26A1.77,1.77,0,0,1,13.56,31Zm0-2.7a.92.92,0,0,0-.36.07,1,1,0,0,0-.53.52,1,1,0,1,0,1.78,0h0A1,1,0,0,0,13.56,28.32Z"/><circle class="cls-6" cx="9.45" cy="30.93" r="1.54"/><path class="cls-2" d="M9.45,33a2.05,2.05,0,0,1-.8-.17,2,2,0,0,1-1.06-2.65A2,2,0,0,1,8.7,29.05a2,2,0,0,1,1.55,0,2,2,0,0,1,1.08,1.11A2,2,0,0,1,10.2,32.8,1.93,1.93,0,0,1,9.45,33Zm0-3.09a1.07,1.07,0,0,0-1,.65A1.06,1.06,0,0,0,9,31.9a1.08,1.08,0,0,0,.81,0,1.07,1.07,0,0,0,.6-1.38h0A1.08,1.08,0,0,0,9.87,30,1,1,0,0,0,9.45,29.86Z"/><circle class="cls-6" cx="3.47" cy="33.31" r="2.7"/><path class="cls-2" d="M3.47,36.78A3.47,3.47,0,1,1,6.69,32h0a3.45,3.45,0,0,1-1.94,4.5A3.39,3.39,0,0,1,3.47,36.78Zm0-5.39a2,2,0,0,0-.72.13A1.94,1.94,0,0,0,1.68,34a1.92,1.92,0,0,0,2.5,1.07,1.88,1.88,0,0,0,1.06-1,1.92,1.92,0,0,0,0-1.47h0A1.92,1.92,0,0,0,3.47,31.39Z"/><circle class="cls-6" cx="36.44" cy="20.71" r="1.35"/><path class="cls-2" d="M36.44,22.45a1.8,1.8,0,0,1-.68-.14,1.73,1.73,0,0,1-.93-.95h0a1.75,1.75,0,0,1,1-2.26,1.73,1.73,0,0,1,1.28,3.22A1.56,1.56,0,0,1,36.44,22.45Zm-.89-1.38a.92.92,0,0,0,.51.53,1,1,0,0,0,.74,0,1,1,0,1,0-.72-1.79.93.93,0,0,0-.52.51.91.91,0,0,0,0,.74Z"/><circle class="cls-6" cx="40.55" cy="19.07" r="1.54"/><path class="cls-2" d="M40.55,21.1a2.05,2.05,0,0,1-.8-.17,2,2,0,0,1-1.08-1.11h0a2,2,0,0,1,3.76-1.5A2,2,0,0,1,41.3,21,2,2,0,0,1,40.55,21.1Zm-1-1.63a1.07,1.07,0,0,0,1.38.59,1.07,1.07,0,0,0,.59-1.38A1,1,0,0,0,41,18.1a1.08,1.08,0,0,0-.81,0,1.1,1.1,0,0,0-.59.57,1.08,1.08,0,0,0,0,.81Z"/><circle class="cls-6" cx="46.53" cy="16.69" r="2.7"/><path class="cls-2" d="M46.53,20.16a3.48,3.48,0,0,1-1.37-.29A3.42,3.42,0,0,1,43.31,18h0a3.47,3.47,0,1,1,4.51,1.94A3.4,3.4,0,0,1,46.53,20.16ZM44.74,17.4a1.94,1.94,0,0,0,1,1.06,1.93,1.93,0,1,0-1-1.06Z"/><circle class="cls-6" cx="19.94" cy="36.12" r="1.35"/><path class="cls-2" d="M19.94,37.86a1.64,1.64,0,0,1-.68-.15,1.72,1.72,0,0,1-.91-2.27,1.73,1.73,0,1,1,3.18,1.37A1.76,1.76,0,0,1,19.94,37.86Zm0-2.7a.92.92,0,0,0-.36.07.9.9,0,0,0-.52.51,1,1,0,1,0,1.77.76,1,1,0,0,0,0-.74,1,1,0,0,0-.52-.52h0A.84.84,0,0,0,19.94,35.16Z"/><circle class="cls-6" cx="18.2" cy="40.18" r="1.54"/><path class="cls-2" d="M18.19,42.21A2,2,0,0,1,17.4,42,2,2,0,0,1,19,38.32h0a2,2,0,0,1-.8,3.89Zm0-3.09a1.06,1.06,0,0,0-.42,2,1.06,1.06,0,0,0,1.39-.56,1.06,1.06,0,0,0-.56-1.39h0A1,1,0,0,0,18.2,39.12Z"/><circle class="cls-6" cx="15.65" cy="46.1" r="2.7"/><path class="cls-2" d="M15.65,49.57a3.5,3.5,0,0,1-1.37-.28,3.47,3.47,0,1,1,4.59-4.47,3.39,3.39,0,0,1,0,2.65A3.48,3.48,0,0,1,15.65,49.57Zm0-5.39a1.92,1.92,0,1,0,1.76,2.68,1.88,1.88,0,0,0,0-1.47,1.91,1.91,0,0,0-1-1.06h0A2,2,0,0,0,15.66,44.18Z"/><circle class="cls-6" cx="30.06" cy="13.88" r="1.35"/><path class="cls-2" d="M30.06,15.61a1.67,1.67,0,0,1-.69-.14,1.73,1.73,0,0,1-.9-2.27,1.7,1.7,0,0,1,1-.93,1.68,1.68,0,0,1,1.32,0,1.7,1.7,0,0,1,.93,1,1.68,1.68,0,0,1,0,1.32,1.7,1.7,0,0,1-.95.93A1.77,1.77,0,0,1,30.06,15.61Zm0-2.69a1.13,1.13,0,0,0-.36.06,1,1,0,0,0-.53.52,1,1,0,0,0,.51,1.26.91.91,0,0,0,.74,0,.93.93,0,0,0,.52-.51.91.91,0,0,0,0-.74,1,1,0,0,0-.51-.53A1,1,0,0,0,30.06,12.92Z"/><circle class="cls-6" cx="31.8" cy="9.82" r="1.54"/><path class="cls-2" d="M31.8,11.84a2,2,0,0,1-.79-.16,2.08,2.08,0,0,1-1.09-1.11A2,2,0,0,1,32.6,8a2,2,0,0,1,1.06,2.65A2,2,0,0,1,31.8,11.84Zm0-3.08a1.06,1.06,0,0,0-1,.64,1,1,0,0,0,0,.81,1,1,0,0,0,.57.58h0a1.06,1.06,0,0,0,1.39-.56,1.06,1.06,0,0,0-.56-1.39A1,1,0,0,0,31.81,8.76Z"/><circle class="cls-6" cx="34.35" cy="3.9" r="2.7"/><path class="cls-2" d="M34.35,7.37A3.44,3.44,0,0,1,33,7.08h0a3.47,3.47,0,1,1,4.55-1.81,3.42,3.42,0,0,1-1.9,1.85A3.35,3.35,0,0,1,34.35,7.37Zm-.76-1.7a1.92,1.92,0,0,0,1.47,0,1.92,1.92,0,0,0,0-3.56,1.93,1.93,0,0,0-1.52,3.54Z"/><circle class="cls-6" cx="20.71" cy="13.56" r="1.35"/><path class="cls-2" d="M20.71,15.29a1.63,1.63,0,0,1-.68-.14,1.7,1.7,0,0,1-.93-1,1.73,1.73,0,0,1,3.22-1.28,1.68,1.68,0,0,1,0,1.32,1.73,1.73,0,0,1-.95.93A1.82,1.82,0,0,1,20.71,15.29Zm0-2.69a1,1,0,0,0-.35.06,1,1,0,0,0-.54,1.26.93.93,0,0,0,.51.52.91.91,0,0,0,.74,0h0a.92.92,0,0,0,.53-.51,1,1,0,0,0,0-.74A1,1,0,0,0,20.71,12.6Z"/><circle class="cls-6" cx="19.07" cy="9.45" r="1.54"/><path class="cls-2" d="M19.08,11.48A2,2,0,1,1,21,8.7a2,2,0,0,1,0,1.55,2,2,0,0,1-1.11,1.08A1.92,1.92,0,0,1,19.08,11.48Zm0-3.09a1.09,1.09,0,0,0-.39.08,1.05,1.05,0,0,0-.59,1.37,1.1,1.1,0,0,0,.57.59,1.08,1.08,0,0,0,.81,0h0a1.06,1.06,0,0,0,0-2A1,1,0,0,0,19.07,8.39Z"/><circle class="cls-6" cx="16.69" cy="3.47" r="2.7"/><path class="cls-2" d="M16.69,6.94a3.46,3.46,0,0,1-3.22-2.19,3.39,3.39,0,0,1,0-2.65A3.47,3.47,0,1,1,18,6.69h0A3.39,3.39,0,0,1,16.69,6.94Zm0-5.4a2,2,0,0,0-.71.14,1.93,1.93,0,0,0-1.05,1,1.88,1.88,0,0,0,0,1.47,1.93,1.93,0,1,0,1.78-2.64Z"/><circle class="cls-6" cx="29.29" cy="36.44" r="1.35"/><path class="cls-2" d="M29.29,38.17a1.73,1.73,0,0,1-.65-3.34h0a1.73,1.73,0,1,1,1.29,3.22A1.61,1.61,0,0,1,29.29,38.17Zm-.36-2.62a1,1,0,0,0-.54,1.25,1,1,0,1,0,1.79-.72,1,1,0,0,0-1.25-.53Z"/><circle class="cls-6" cx="12.79" cy="24.55" r="1.35"/><path class="cls-2" d="M12.79,26.29h0a1.74,1.74,0,1,1,1.77-1.71h0A1.74,1.74,0,0,1,12.79,26.29Zm0-2.7a1,1,0,1,0,1,1,1,1,0,0,0-1-1Z"/><circle class="cls-6" cx="37.21" cy="25.45" r="1.35"/><path class="cls-2" d="M37.21,27.18h0A1.73,1.73,0,0,1,36,26.65a1.76,1.76,0,0,1-.49-1.23h0A1.75,1.75,0,0,1,36,24.2a1.73,1.73,0,0,1,2.45,0,1.74,1.74,0,0,1,0,2.45A1.73,1.73,0,0,1,37.21,27.18Zm-1-1.75a.94.94,0,0,0,.27.69,1,1,0,0,0,.67.29.94.94,0,0,0,.69-.27,1,1,0,0,0,.29-.68.9.9,0,0,0-.27-.68,1,1,0,0,0-.68-.3,1,1,0,0,0-.68.28.9.9,0,0,0-.29.67Z"/><circle class="cls-6" cx="16.05" cy="33.32" r="1.35"/><path class="cls-2" d="M16.05,35.05a1.71,1.71,0,0,1-1.24-.53,1.74,1.74,0,0,1,0-2.45,1.75,1.75,0,0,1,1.24-.49,1.77,1.77,0,0,1,1.22.53,1.7,1.7,0,0,1,.48,1.23,1.69,1.69,0,0,1-.52,1.22A1.72,1.72,0,0,1,16.05,35.05Zm0-2.7A1,1,0,0,0,15.36,34a1,1,0,0,0,1.36,0,.92.92,0,0,0,.29-.68.9.9,0,0,0-.27-.68h0a1,1,0,0,0-.67-.3Z"/><circle class="cls-6" cx="33.95" cy="16.68" r="1.35"/><path class="cls-2" d="M34,18.42h0a1.77,1.77,0,0,1-1.22-.53,1.7,1.7,0,0,1-.48-1.23,1.69,1.69,0,0,1,.52-1.22,1.74,1.74,0,0,1,2.42,2.49A1.77,1.77,0,0,1,34,18.42Zm0-2.7a1,1,0,0,0-.67.27.92.92,0,0,0-.29.68.9.9,0,0,0,.27.68h0a1,1,0,0,0,.67.3h0a1,1,0,1,0,0-1.93Z"/><circle class="cls-6" cx="24.55" cy="37.21" r="1.35"/><path class="cls-2" d="M24.55,38.94h0a1.72,1.72,0,0,1-1.71-1.76,1.74,1.74,0,1,1,1.73,1.76Zm0-2.69a1,1,0,0,0-1,.94,1,1,0,0,0,.27.69,1,1,0,0,0,.68.29h0a1,1,0,1,0,0-1.92Z"/><circle class="cls-6" cx="25.45" cy="12.79" r="1.35"/><path class="cls-2" d="M25.45,14.53h0a1.74,1.74,0,1,1,0-3.47,1.72,1.72,0,0,1,1.71,1.76A1.73,1.73,0,0,1,25.45,14.53Zm0-2.7a1,1,0,0,0-.69,1.63.9.9,0,0,0,.67.29h0a1,1,0,0,0,1-.94,1,1,0,0,0-.27-.69,1,1,0,0,0-.68-.29Z"/><circle class="cls-6" cx="16.68" cy="16.05" r="1.35"/><path class="cls-2" d="M16.68,17.78a1.73,1.73,0,0,1-1.2-3,1.73,1.73,0,1,1,1.2,3Zm0-2.69a1,1,0,1,0,.7.29A1,1,0,0,0,16.68,15.09Z"/><circle class="cls-6" cx="33.32" cy="33.95" r="1.35"/><path class="cls-2" d="M33.32,35.68h0a1.7,1.7,0,0,1-1.22-.52,1.74,1.74,0,0,1,0-2.46,1.7,1.7,0,0,1,1.23-.48,1.69,1.69,0,0,1,1.22.52A1.72,1.72,0,0,1,35.05,34a1.74,1.74,0,0,1-1.73,1.7Zm0-2.69a.92.92,0,0,0-.67.27h0a1,1,0,0,0-.3.67,1,1,0,0,0,.27.69,1,1,0,0,0,.68.29.94.94,0,0,0,.69-.27,1,1,0,0,0,0-1.36.92.92,0,0,0-.68-.29Z"/><circle class="cls-6" cx="30.93" cy="40.55" r="1.54"/><path class="cls-2" d="M30.93,42.57a2,2,0,0,1-.75-3.9h0a2,2,0,0,1,1.5,3.76A2,2,0,0,1,30.93,42.57Zm-.4-3a1.06,1.06,0,1,0,.79,2,1.05,1.05,0,0,0,.59-1.37,1.07,1.07,0,0,0-1.38-.6Z"/><circle class="cls-6" cx="33.31" cy="46.53" r="2.7"/><path class="cls-2" d="M33.32,50A3.47,3.47,0,0,1,32,43.31h0a3.48,3.48,0,0,1,2.65,0,3.43,3.43,0,0,1,1.85,1.91,3.47,3.47,0,0,1-1.93,4.5A3.43,3.43,0,0,1,33.32,50Zm-.72-5.26a1.93,1.93,0,1,0,2.5,1.08,1.88,1.88,0,0,0-1-1.06,1.92,1.92,0,0,0-1.47,0Z"/></g></g></g></svg>